%TF.GenerationSoftware,KiCad,Pcbnew,7.0.1*%
%TF.CreationDate,2023-10-03T17:13:53-03:00*%
%TF.ProjectId,PCB_Oximetro,5043425f-4f78-4696-9d65-74726f2e6b69,rev?*%
%TF.SameCoordinates,Original*%
%TF.FileFunction,Profile,NP*%
%FSLAX46Y46*%
G04 Gerber Fmt 4.6, Leading zero omitted, Abs format (unit mm)*
G04 Created by KiCad (PCBNEW 7.0.1) date 2023-10-03 17:13:53*
%MOMM*%
%LPD*%
G01*
G04 APERTURE LIST*
G04 Aperture macros list*
%AMRoundRect*
0 Rectangle with rounded corners*
0 $1 Rounding radius*
0 $2 $3 $4 $5 $6 $7 $8 $9 X,Y pos of 4 corners*
0 Add a 4 corners polygon primitive as box body*
4,1,4,$2,$3,$4,$5,$6,$7,$8,$9,$2,$3,0*
0 Add four circle primitives for the rounded corners*
1,1,$1+$1,$2,$3*
1,1,$1+$1,$4,$5*
1,1,$1+$1,$6,$7*
1,1,$1+$1,$8,$9*
0 Add four rect primitives between the rounded corners*
20,1,$1+$1,$2,$3,$4,$5,0*
20,1,$1+$1,$4,$5,$6,$7,0*
20,1,$1+$1,$6,$7,$8,$9,0*
20,1,$1+$1,$8,$9,$2,$3,0*%
G04 Aperture macros list end*
%ADD10C,0.100000*%
%ADD11C,0.150000*%
%ADD12C,0.300000*%
%ADD13C,0.400000*%
%TA.AperFunction,Profile*%
%ADD14C,0.100000*%
%TD*%
%TA.AperFunction,SMDPad,CuDef*%
%ADD15RoundRect,0.250000X-0.250000X-0.475000X0.250000X-0.475000X0.250000X0.475000X-0.250000X0.475000X0*%
%TD*%
%TA.AperFunction,SMDPad,CuDef*%
%ADD16RoundRect,0.250000X-0.475000X0.250000X-0.475000X-0.250000X0.475000X-0.250000X0.475000X0.250000X0*%
%TD*%
%TA.AperFunction,ComponentPad*%
%ADD17R,1.600000X1.600000*%
%TD*%
%TA.AperFunction,ComponentPad*%
%ADD18C,1.600000*%
%TD*%
%TA.AperFunction,ComponentPad*%
%ADD19R,1.700000X1.700000*%
%TD*%
%TA.AperFunction,ComponentPad*%
%ADD20O,1.700000X1.700000*%
%TD*%
%TA.AperFunction,SMDPad,CuDef*%
%ADD21R,1.500000X2.000000*%
%TD*%
%TA.AperFunction,SMDPad,CuDef*%
%ADD22R,3.800000X2.000000*%
%TD*%
%TA.AperFunction,SMDPad,CuDef*%
%ADD23R,1.400000X0.400000*%
%TD*%
%TA.AperFunction,SMDPad,CuDef*%
%ADD24R,1.900000X2.300000*%
%TD*%
%TA.AperFunction,SMDPad,CuDef*%
%ADD25R,1.900000X1.800000*%
%TD*%
%TA.AperFunction,SMDPad,CuDef*%
%ADD26RoundRect,0.250000X-0.312500X-0.625000X0.312500X-0.625000X0.312500X0.625000X-0.312500X0.625000X0*%
%TD*%
%TA.AperFunction,ComponentPad*%
%ADD27R,2.200000X2.200000*%
%TD*%
%TA.AperFunction,ComponentPad*%
%ADD28O,2.200000X2.200000*%
%TD*%
%TA.AperFunction,ComponentPad*%
%ADD29C,2.100000*%
%TD*%
%TA.AperFunction,ComponentPad*%
%ADD30C,1.750000*%
%TD*%
%TA.AperFunction,SMDPad,CuDef*%
%ADD31RoundRect,0.250000X0.625000X-0.312500X0.625000X0.312500X-0.625000X0.312500X-0.625000X-0.312500X0*%
%TD*%
%TA.AperFunction,ComponentPad*%
%ADD32R,2.000000X2.000000*%
%TD*%
%TA.AperFunction,ComponentPad*%
%ADD33C,2.000000*%
%TD*%
%TA.AperFunction,Conductor*%
%ADD34C,0.762000*%
%TD*%
%TA.AperFunction,Conductor*%
%ADD35C,0.381000*%
%TD*%
%TA.AperFunction,Conductor*%
%ADD36C,0.250000*%
%TD*%
G04 APERTURE END LIST*
D10*
D11*
X177002200Y-166007200D02*
X285002200Y-166007200D01*
X285002200Y-198007200D01*
X177002200Y-198007200D01*
X177002200Y-166007200D01*
D10*
D11*
X10000000Y-10000000D02*
X287002200Y-10000000D01*
X287002200Y-200007200D01*
X10000000Y-200007200D01*
X10000000Y-10000000D01*
D10*
D11*
X12000000Y-12000000D02*
X285002200Y-12000000D01*
X285002200Y-198007200D01*
X12000000Y-198007200D01*
X12000000Y-12000000D01*
D10*
D11*
X60000000Y-12000000D02*
X60000000Y-10000000D01*
D10*
D11*
X110000000Y-12000000D02*
X110000000Y-10000000D01*
D10*
D11*
X160000000Y-12000000D02*
X160000000Y-10000000D01*
D10*
D11*
X210000000Y-12000000D02*
X210000000Y-10000000D01*
D10*
D11*
X260000000Y-12000000D02*
X260000000Y-10000000D01*
D10*
D11*
X35990476Y-11601404D02*
X35247619Y-11601404D01*
X35619047Y-11601404D02*
X35619047Y-10301404D01*
X35619047Y-10301404D02*
X35495238Y-10487119D01*
X35495238Y-10487119D02*
X35371428Y-10610928D01*
X35371428Y-10610928D02*
X35247619Y-10672833D01*
D10*
D11*
X85247619Y-10425214D02*
X85309523Y-10363309D01*
X85309523Y-10363309D02*
X85433333Y-10301404D01*
X85433333Y-10301404D02*
X85742857Y-10301404D01*
X85742857Y-10301404D02*
X85866666Y-10363309D01*
X85866666Y-10363309D02*
X85928571Y-10425214D01*
X85928571Y-10425214D02*
X85990476Y-10549023D01*
X85990476Y-10549023D02*
X85990476Y-10672833D01*
X85990476Y-10672833D02*
X85928571Y-10858547D01*
X85928571Y-10858547D02*
X85185714Y-11601404D01*
X85185714Y-11601404D02*
X85990476Y-11601404D01*
D10*
D11*
X135185714Y-10301404D02*
X135990476Y-10301404D01*
X135990476Y-10301404D02*
X135557142Y-10796642D01*
X135557142Y-10796642D02*
X135742857Y-10796642D01*
X135742857Y-10796642D02*
X135866666Y-10858547D01*
X135866666Y-10858547D02*
X135928571Y-10920452D01*
X135928571Y-10920452D02*
X135990476Y-11044261D01*
X135990476Y-11044261D02*
X135990476Y-11353785D01*
X135990476Y-11353785D02*
X135928571Y-11477595D01*
X135928571Y-11477595D02*
X135866666Y-11539500D01*
X135866666Y-11539500D02*
X135742857Y-11601404D01*
X135742857Y-11601404D02*
X135371428Y-11601404D01*
X135371428Y-11601404D02*
X135247619Y-11539500D01*
X135247619Y-11539500D02*
X135185714Y-11477595D01*
D10*
D11*
X185866666Y-10734738D02*
X185866666Y-11601404D01*
X185557142Y-10239500D02*
X185247619Y-11168071D01*
X185247619Y-11168071D02*
X186052380Y-11168071D01*
D10*
D11*
X235928571Y-10301404D02*
X235309523Y-10301404D01*
X235309523Y-10301404D02*
X235247619Y-10920452D01*
X235247619Y-10920452D02*
X235309523Y-10858547D01*
X235309523Y-10858547D02*
X235433333Y-10796642D01*
X235433333Y-10796642D02*
X235742857Y-10796642D01*
X235742857Y-10796642D02*
X235866666Y-10858547D01*
X235866666Y-10858547D02*
X235928571Y-10920452D01*
X235928571Y-10920452D02*
X235990476Y-11044261D01*
X235990476Y-11044261D02*
X235990476Y-11353785D01*
X235990476Y-11353785D02*
X235928571Y-11477595D01*
X235928571Y-11477595D02*
X235866666Y-11539500D01*
X235866666Y-11539500D02*
X235742857Y-11601404D01*
X235742857Y-11601404D02*
X235433333Y-11601404D01*
X235433333Y-11601404D02*
X235309523Y-11539500D01*
X235309523Y-11539500D02*
X235247619Y-11477595D01*
D10*
D11*
X285866666Y-10301404D02*
X285619047Y-10301404D01*
X285619047Y-10301404D02*
X285495238Y-10363309D01*
X285495238Y-10363309D02*
X285433333Y-10425214D01*
X285433333Y-10425214D02*
X285309523Y-10610928D01*
X285309523Y-10610928D02*
X285247619Y-10858547D01*
X285247619Y-10858547D02*
X285247619Y-11353785D01*
X285247619Y-11353785D02*
X285309523Y-11477595D01*
X285309523Y-11477595D02*
X285371428Y-11539500D01*
X285371428Y-11539500D02*
X285495238Y-11601404D01*
X285495238Y-11601404D02*
X285742857Y-11601404D01*
X285742857Y-11601404D02*
X285866666Y-11539500D01*
X285866666Y-11539500D02*
X285928571Y-11477595D01*
X285928571Y-11477595D02*
X285990476Y-11353785D01*
X285990476Y-11353785D02*
X285990476Y-11044261D01*
X285990476Y-11044261D02*
X285928571Y-10920452D01*
X285928571Y-10920452D02*
X285866666Y-10858547D01*
X285866666Y-10858547D02*
X285742857Y-10796642D01*
X285742857Y-10796642D02*
X285495238Y-10796642D01*
X285495238Y-10796642D02*
X285371428Y-10858547D01*
X285371428Y-10858547D02*
X285309523Y-10920452D01*
X285309523Y-10920452D02*
X285247619Y-11044261D01*
D10*
D11*
X60000000Y-198007200D02*
X60000000Y-200007200D01*
D10*
D11*
X110000000Y-198007200D02*
X110000000Y-200007200D01*
D10*
D11*
X160000000Y-198007200D02*
X160000000Y-200007200D01*
D10*
D11*
X210000000Y-198007200D02*
X210000000Y-200007200D01*
D10*
D11*
X260000000Y-198007200D02*
X260000000Y-200007200D01*
D10*
D11*
X35990476Y-199608604D02*
X35247619Y-199608604D01*
X35619047Y-199608604D02*
X35619047Y-198308604D01*
X35619047Y-198308604D02*
X35495238Y-198494319D01*
X35495238Y-198494319D02*
X35371428Y-198618128D01*
X35371428Y-198618128D02*
X35247619Y-198680033D01*
D10*
D11*
X85247619Y-198432414D02*
X85309523Y-198370509D01*
X85309523Y-198370509D02*
X85433333Y-198308604D01*
X85433333Y-198308604D02*
X85742857Y-198308604D01*
X85742857Y-198308604D02*
X85866666Y-198370509D01*
X85866666Y-198370509D02*
X85928571Y-198432414D01*
X85928571Y-198432414D02*
X85990476Y-198556223D01*
X85990476Y-198556223D02*
X85990476Y-198680033D01*
X85990476Y-198680033D02*
X85928571Y-198865747D01*
X85928571Y-198865747D02*
X85185714Y-199608604D01*
X85185714Y-199608604D02*
X85990476Y-199608604D01*
D10*
D11*
X135185714Y-198308604D02*
X135990476Y-198308604D01*
X135990476Y-198308604D02*
X135557142Y-198803842D01*
X135557142Y-198803842D02*
X135742857Y-198803842D01*
X135742857Y-198803842D02*
X135866666Y-198865747D01*
X135866666Y-198865747D02*
X135928571Y-198927652D01*
X135928571Y-198927652D02*
X135990476Y-199051461D01*
X135990476Y-199051461D02*
X135990476Y-199360985D01*
X135990476Y-199360985D02*
X135928571Y-199484795D01*
X135928571Y-199484795D02*
X135866666Y-199546700D01*
X135866666Y-199546700D02*
X135742857Y-199608604D01*
X135742857Y-199608604D02*
X135371428Y-199608604D01*
X135371428Y-199608604D02*
X135247619Y-199546700D01*
X135247619Y-199546700D02*
X135185714Y-199484795D01*
D10*
D11*
X185866666Y-198741938D02*
X185866666Y-199608604D01*
X185557142Y-198246700D02*
X185247619Y-199175271D01*
X185247619Y-199175271D02*
X186052380Y-199175271D01*
D10*
D11*
X235928571Y-198308604D02*
X235309523Y-198308604D01*
X235309523Y-198308604D02*
X235247619Y-198927652D01*
X235247619Y-198927652D02*
X235309523Y-198865747D01*
X235309523Y-198865747D02*
X235433333Y-198803842D01*
X235433333Y-198803842D02*
X235742857Y-198803842D01*
X235742857Y-198803842D02*
X235866666Y-198865747D01*
X235866666Y-198865747D02*
X235928571Y-198927652D01*
X235928571Y-198927652D02*
X235990476Y-199051461D01*
X235990476Y-199051461D02*
X235990476Y-199360985D01*
X235990476Y-199360985D02*
X235928571Y-199484795D01*
X235928571Y-199484795D02*
X235866666Y-199546700D01*
X235866666Y-199546700D02*
X235742857Y-199608604D01*
X235742857Y-199608604D02*
X235433333Y-199608604D01*
X235433333Y-199608604D02*
X235309523Y-199546700D01*
X235309523Y-199546700D02*
X235247619Y-199484795D01*
D10*
D11*
X285866666Y-198308604D02*
X285619047Y-198308604D01*
X285619047Y-198308604D02*
X285495238Y-198370509D01*
X285495238Y-198370509D02*
X285433333Y-198432414D01*
X285433333Y-198432414D02*
X285309523Y-198618128D01*
X285309523Y-198618128D02*
X285247619Y-198865747D01*
X285247619Y-198865747D02*
X285247619Y-199360985D01*
X285247619Y-199360985D02*
X285309523Y-199484795D01*
X285309523Y-199484795D02*
X285371428Y-199546700D01*
X285371428Y-199546700D02*
X285495238Y-199608604D01*
X285495238Y-199608604D02*
X285742857Y-199608604D01*
X285742857Y-199608604D02*
X285866666Y-199546700D01*
X285866666Y-199546700D02*
X285928571Y-199484795D01*
X285928571Y-199484795D02*
X285990476Y-199360985D01*
X285990476Y-199360985D02*
X285990476Y-199051461D01*
X285990476Y-199051461D02*
X285928571Y-198927652D01*
X285928571Y-198927652D02*
X285866666Y-198865747D01*
X285866666Y-198865747D02*
X285742857Y-198803842D01*
X285742857Y-198803842D02*
X285495238Y-198803842D01*
X285495238Y-198803842D02*
X285371428Y-198865747D01*
X285371428Y-198865747D02*
X285309523Y-198927652D01*
X285309523Y-198927652D02*
X285247619Y-199051461D01*
D10*
D11*
X10000000Y-60000000D02*
X12000000Y-60000000D01*
D10*
D11*
X10000000Y-110000000D02*
X12000000Y-110000000D01*
D10*
D11*
X10000000Y-160000000D02*
X12000000Y-160000000D01*
D10*
D11*
X10690476Y-35229976D02*
X11309523Y-35229976D01*
X10566666Y-35601404D02*
X10999999Y-34301404D01*
X10999999Y-34301404D02*
X11433333Y-35601404D01*
D10*
D11*
X11092857Y-84920452D02*
X11278571Y-84982357D01*
X11278571Y-84982357D02*
X11340476Y-85044261D01*
X11340476Y-85044261D02*
X11402380Y-85168071D01*
X11402380Y-85168071D02*
X11402380Y-85353785D01*
X11402380Y-85353785D02*
X11340476Y-85477595D01*
X11340476Y-85477595D02*
X11278571Y-85539500D01*
X11278571Y-85539500D02*
X11154761Y-85601404D01*
X11154761Y-85601404D02*
X10659523Y-85601404D01*
X10659523Y-85601404D02*
X10659523Y-84301404D01*
X10659523Y-84301404D02*
X11092857Y-84301404D01*
X11092857Y-84301404D02*
X11216666Y-84363309D01*
X11216666Y-84363309D02*
X11278571Y-84425214D01*
X11278571Y-84425214D02*
X11340476Y-84549023D01*
X11340476Y-84549023D02*
X11340476Y-84672833D01*
X11340476Y-84672833D02*
X11278571Y-84796642D01*
X11278571Y-84796642D02*
X11216666Y-84858547D01*
X11216666Y-84858547D02*
X11092857Y-84920452D01*
X11092857Y-84920452D02*
X10659523Y-84920452D01*
D10*
D11*
X11402380Y-135477595D02*
X11340476Y-135539500D01*
X11340476Y-135539500D02*
X11154761Y-135601404D01*
X11154761Y-135601404D02*
X11030952Y-135601404D01*
X11030952Y-135601404D02*
X10845238Y-135539500D01*
X10845238Y-135539500D02*
X10721428Y-135415690D01*
X10721428Y-135415690D02*
X10659523Y-135291880D01*
X10659523Y-135291880D02*
X10597619Y-135044261D01*
X10597619Y-135044261D02*
X10597619Y-134858547D01*
X10597619Y-134858547D02*
X10659523Y-134610928D01*
X10659523Y-134610928D02*
X10721428Y-134487119D01*
X10721428Y-134487119D02*
X10845238Y-134363309D01*
X10845238Y-134363309D02*
X11030952Y-134301404D01*
X11030952Y-134301404D02*
X11154761Y-134301404D01*
X11154761Y-134301404D02*
X11340476Y-134363309D01*
X11340476Y-134363309D02*
X11402380Y-134425214D01*
D10*
D11*
X10659523Y-185601404D02*
X10659523Y-184301404D01*
X10659523Y-184301404D02*
X10969047Y-184301404D01*
X10969047Y-184301404D02*
X11154761Y-184363309D01*
X11154761Y-184363309D02*
X11278571Y-184487119D01*
X11278571Y-184487119D02*
X11340476Y-184610928D01*
X11340476Y-184610928D02*
X11402380Y-184858547D01*
X11402380Y-184858547D02*
X11402380Y-185044261D01*
X11402380Y-185044261D02*
X11340476Y-185291880D01*
X11340476Y-185291880D02*
X11278571Y-185415690D01*
X11278571Y-185415690D02*
X11154761Y-185539500D01*
X11154761Y-185539500D02*
X10969047Y-185601404D01*
X10969047Y-185601404D02*
X10659523Y-185601404D01*
D10*
D11*
X287002200Y-60000000D02*
X285002200Y-60000000D01*
D10*
D11*
X287002200Y-110000000D02*
X285002200Y-110000000D01*
D10*
D11*
X287002200Y-160000000D02*
X285002200Y-160000000D01*
D10*
D11*
X285692676Y-35229976D02*
X286311723Y-35229976D01*
X285568866Y-35601404D02*
X286002199Y-34301404D01*
X286002199Y-34301404D02*
X286435533Y-35601404D01*
D10*
D11*
X286095057Y-84920452D02*
X286280771Y-84982357D01*
X286280771Y-84982357D02*
X286342676Y-85044261D01*
X286342676Y-85044261D02*
X286404580Y-85168071D01*
X286404580Y-85168071D02*
X286404580Y-85353785D01*
X286404580Y-85353785D02*
X286342676Y-85477595D01*
X286342676Y-85477595D02*
X286280771Y-85539500D01*
X286280771Y-85539500D02*
X286156961Y-85601404D01*
X286156961Y-85601404D02*
X285661723Y-85601404D01*
X285661723Y-85601404D02*
X285661723Y-84301404D01*
X285661723Y-84301404D02*
X286095057Y-84301404D01*
X286095057Y-84301404D02*
X286218866Y-84363309D01*
X286218866Y-84363309D02*
X286280771Y-84425214D01*
X286280771Y-84425214D02*
X286342676Y-84549023D01*
X286342676Y-84549023D02*
X286342676Y-84672833D01*
X286342676Y-84672833D02*
X286280771Y-84796642D01*
X286280771Y-84796642D02*
X286218866Y-84858547D01*
X286218866Y-84858547D02*
X286095057Y-84920452D01*
X286095057Y-84920452D02*
X285661723Y-84920452D01*
D10*
D11*
X286404580Y-135477595D02*
X286342676Y-135539500D01*
X286342676Y-135539500D02*
X286156961Y-135601404D01*
X286156961Y-135601404D02*
X286033152Y-135601404D01*
X286033152Y-135601404D02*
X285847438Y-135539500D01*
X285847438Y-135539500D02*
X285723628Y-135415690D01*
X285723628Y-135415690D02*
X285661723Y-135291880D01*
X285661723Y-135291880D02*
X285599819Y-135044261D01*
X285599819Y-135044261D02*
X285599819Y-134858547D01*
X285599819Y-134858547D02*
X285661723Y-134610928D01*
X285661723Y-134610928D02*
X285723628Y-134487119D01*
X285723628Y-134487119D02*
X285847438Y-134363309D01*
X285847438Y-134363309D02*
X286033152Y-134301404D01*
X286033152Y-134301404D02*
X286156961Y-134301404D01*
X286156961Y-134301404D02*
X286342676Y-134363309D01*
X286342676Y-134363309D02*
X286404580Y-134425214D01*
D10*
D11*
X285661723Y-185601404D02*
X285661723Y-184301404D01*
X285661723Y-184301404D02*
X285971247Y-184301404D01*
X285971247Y-184301404D02*
X286156961Y-184363309D01*
X286156961Y-184363309D02*
X286280771Y-184487119D01*
X286280771Y-184487119D02*
X286342676Y-184610928D01*
X286342676Y-184610928D02*
X286404580Y-184858547D01*
X286404580Y-184858547D02*
X286404580Y-185044261D01*
X286404580Y-185044261D02*
X286342676Y-185291880D01*
X286342676Y-185291880D02*
X286280771Y-185415690D01*
X286280771Y-185415690D02*
X286156961Y-185539500D01*
X286156961Y-185539500D02*
X285971247Y-185601404D01*
X285971247Y-185601404D02*
X285661723Y-185601404D01*
D10*
D11*
X200359342Y-193801128D02*
X200359342Y-192301128D01*
X200359342Y-192301128D02*
X200716485Y-192301128D01*
X200716485Y-192301128D02*
X200930771Y-192372557D01*
X200930771Y-192372557D02*
X201073628Y-192515414D01*
X201073628Y-192515414D02*
X201145057Y-192658271D01*
X201145057Y-192658271D02*
X201216485Y-192943985D01*
X201216485Y-192943985D02*
X201216485Y-193158271D01*
X201216485Y-193158271D02*
X201145057Y-193443985D01*
X201145057Y-193443985D02*
X201073628Y-193586842D01*
X201073628Y-193586842D02*
X200930771Y-193729700D01*
X200930771Y-193729700D02*
X200716485Y-193801128D01*
X200716485Y-193801128D02*
X200359342Y-193801128D01*
X202502200Y-193801128D02*
X202502200Y-193015414D01*
X202502200Y-193015414D02*
X202430771Y-192872557D01*
X202430771Y-192872557D02*
X202287914Y-192801128D01*
X202287914Y-192801128D02*
X202002200Y-192801128D01*
X202002200Y-192801128D02*
X201859342Y-192872557D01*
X202502200Y-193729700D02*
X202359342Y-193801128D01*
X202359342Y-193801128D02*
X202002200Y-193801128D01*
X202002200Y-193801128D02*
X201859342Y-193729700D01*
X201859342Y-193729700D02*
X201787914Y-193586842D01*
X201787914Y-193586842D02*
X201787914Y-193443985D01*
X201787914Y-193443985D02*
X201859342Y-193301128D01*
X201859342Y-193301128D02*
X202002200Y-193229700D01*
X202002200Y-193229700D02*
X202359342Y-193229700D01*
X202359342Y-193229700D02*
X202502200Y-193158271D01*
X203002200Y-192801128D02*
X203573628Y-192801128D01*
X203216485Y-192301128D02*
X203216485Y-193586842D01*
X203216485Y-193586842D02*
X203287914Y-193729700D01*
X203287914Y-193729700D02*
X203430771Y-193801128D01*
X203430771Y-193801128D02*
X203573628Y-193801128D01*
X204645057Y-193729700D02*
X204502200Y-193801128D01*
X204502200Y-193801128D02*
X204216486Y-193801128D01*
X204216486Y-193801128D02*
X204073628Y-193729700D01*
X204073628Y-193729700D02*
X204002200Y-193586842D01*
X204002200Y-193586842D02*
X204002200Y-193015414D01*
X204002200Y-193015414D02*
X204073628Y-192872557D01*
X204073628Y-192872557D02*
X204216486Y-192801128D01*
X204216486Y-192801128D02*
X204502200Y-192801128D01*
X204502200Y-192801128D02*
X204645057Y-192872557D01*
X204645057Y-192872557D02*
X204716486Y-193015414D01*
X204716486Y-193015414D02*
X204716486Y-193158271D01*
X204716486Y-193158271D02*
X204002200Y-193301128D01*
X205359342Y-193658271D02*
X205430771Y-193729700D01*
X205430771Y-193729700D02*
X205359342Y-193801128D01*
X205359342Y-193801128D02*
X205287914Y-193729700D01*
X205287914Y-193729700D02*
X205359342Y-193658271D01*
X205359342Y-193658271D02*
X205359342Y-193801128D01*
X205359342Y-192872557D02*
X205430771Y-192943985D01*
X205430771Y-192943985D02*
X205359342Y-193015414D01*
X205359342Y-193015414D02*
X205287914Y-192943985D01*
X205287914Y-192943985D02*
X205359342Y-192872557D01*
X205359342Y-192872557D02*
X205359342Y-193015414D01*
D10*
D11*
X177002200Y-194507200D02*
X285002200Y-194507200D01*
D10*
D11*
X178359342Y-196601128D02*
X178359342Y-195101128D01*
X179216485Y-196601128D02*
X178573628Y-195743985D01*
X179216485Y-195101128D02*
X178359342Y-195958271D01*
X179859342Y-196601128D02*
X179859342Y-195601128D01*
X179859342Y-195101128D02*
X179787914Y-195172557D01*
X179787914Y-195172557D02*
X179859342Y-195243985D01*
X179859342Y-195243985D02*
X179930771Y-195172557D01*
X179930771Y-195172557D02*
X179859342Y-195101128D01*
X179859342Y-195101128D02*
X179859342Y-195243985D01*
X181430771Y-196458271D02*
X181359343Y-196529700D01*
X181359343Y-196529700D02*
X181145057Y-196601128D01*
X181145057Y-196601128D02*
X181002200Y-196601128D01*
X181002200Y-196601128D02*
X180787914Y-196529700D01*
X180787914Y-196529700D02*
X180645057Y-196386842D01*
X180645057Y-196386842D02*
X180573628Y-196243985D01*
X180573628Y-196243985D02*
X180502200Y-195958271D01*
X180502200Y-195958271D02*
X180502200Y-195743985D01*
X180502200Y-195743985D02*
X180573628Y-195458271D01*
X180573628Y-195458271D02*
X180645057Y-195315414D01*
X180645057Y-195315414D02*
X180787914Y-195172557D01*
X180787914Y-195172557D02*
X181002200Y-195101128D01*
X181002200Y-195101128D02*
X181145057Y-195101128D01*
X181145057Y-195101128D02*
X181359343Y-195172557D01*
X181359343Y-195172557D02*
X181430771Y-195243985D01*
X182716486Y-196601128D02*
X182716486Y-195815414D01*
X182716486Y-195815414D02*
X182645057Y-195672557D01*
X182645057Y-195672557D02*
X182502200Y-195601128D01*
X182502200Y-195601128D02*
X182216486Y-195601128D01*
X182216486Y-195601128D02*
X182073628Y-195672557D01*
X182716486Y-196529700D02*
X182573628Y-196601128D01*
X182573628Y-196601128D02*
X182216486Y-196601128D01*
X182216486Y-196601128D02*
X182073628Y-196529700D01*
X182073628Y-196529700D02*
X182002200Y-196386842D01*
X182002200Y-196386842D02*
X182002200Y-196243985D01*
X182002200Y-196243985D02*
X182073628Y-196101128D01*
X182073628Y-196101128D02*
X182216486Y-196029700D01*
X182216486Y-196029700D02*
X182573628Y-196029700D01*
X182573628Y-196029700D02*
X182716486Y-195958271D01*
X184073629Y-196601128D02*
X184073629Y-195101128D01*
X184073629Y-196529700D02*
X183930771Y-196601128D01*
X183930771Y-196601128D02*
X183645057Y-196601128D01*
X183645057Y-196601128D02*
X183502200Y-196529700D01*
X183502200Y-196529700D02*
X183430771Y-196458271D01*
X183430771Y-196458271D02*
X183359343Y-196315414D01*
X183359343Y-196315414D02*
X183359343Y-195886842D01*
X183359343Y-195886842D02*
X183430771Y-195743985D01*
X183430771Y-195743985D02*
X183502200Y-195672557D01*
X183502200Y-195672557D02*
X183645057Y-195601128D01*
X183645057Y-195601128D02*
X183930771Y-195601128D01*
X183930771Y-195601128D02*
X184073629Y-195672557D01*
X185930771Y-195815414D02*
X186430771Y-195815414D01*
X186645057Y-196601128D02*
X185930771Y-196601128D01*
X185930771Y-196601128D02*
X185930771Y-195101128D01*
X185930771Y-195101128D02*
X186645057Y-195101128D01*
X187287914Y-196458271D02*
X187359343Y-196529700D01*
X187359343Y-196529700D02*
X187287914Y-196601128D01*
X187287914Y-196601128D02*
X187216486Y-196529700D01*
X187216486Y-196529700D02*
X187287914Y-196458271D01*
X187287914Y-196458271D02*
X187287914Y-196601128D01*
X188002200Y-196601128D02*
X188002200Y-195101128D01*
X188002200Y-195101128D02*
X188359343Y-195101128D01*
X188359343Y-195101128D02*
X188573629Y-195172557D01*
X188573629Y-195172557D02*
X188716486Y-195315414D01*
X188716486Y-195315414D02*
X188787915Y-195458271D01*
X188787915Y-195458271D02*
X188859343Y-195743985D01*
X188859343Y-195743985D02*
X188859343Y-195958271D01*
X188859343Y-195958271D02*
X188787915Y-196243985D01*
X188787915Y-196243985D02*
X188716486Y-196386842D01*
X188716486Y-196386842D02*
X188573629Y-196529700D01*
X188573629Y-196529700D02*
X188359343Y-196601128D01*
X188359343Y-196601128D02*
X188002200Y-196601128D01*
X189502200Y-196458271D02*
X189573629Y-196529700D01*
X189573629Y-196529700D02*
X189502200Y-196601128D01*
X189502200Y-196601128D02*
X189430772Y-196529700D01*
X189430772Y-196529700D02*
X189502200Y-196458271D01*
X189502200Y-196458271D02*
X189502200Y-196601128D01*
X190145058Y-196172557D02*
X190859344Y-196172557D01*
X190002201Y-196601128D02*
X190502201Y-195101128D01*
X190502201Y-195101128D02*
X191002201Y-196601128D01*
X191502200Y-196458271D02*
X191573629Y-196529700D01*
X191573629Y-196529700D02*
X191502200Y-196601128D01*
X191502200Y-196601128D02*
X191430772Y-196529700D01*
X191430772Y-196529700D02*
X191502200Y-196458271D01*
X191502200Y-196458271D02*
X191502200Y-196601128D01*
X194502200Y-196601128D02*
X194502200Y-195101128D01*
X194645058Y-196029700D02*
X195073629Y-196601128D01*
X195073629Y-195601128D02*
X194502200Y-196172557D01*
X195716486Y-196601128D02*
X195716486Y-195601128D01*
X195716486Y-195101128D02*
X195645058Y-195172557D01*
X195645058Y-195172557D02*
X195716486Y-195243985D01*
X195716486Y-195243985D02*
X195787915Y-195172557D01*
X195787915Y-195172557D02*
X195716486Y-195101128D01*
X195716486Y-195101128D02*
X195716486Y-195243985D01*
X197073630Y-196529700D02*
X196930772Y-196601128D01*
X196930772Y-196601128D02*
X196645058Y-196601128D01*
X196645058Y-196601128D02*
X196502201Y-196529700D01*
X196502201Y-196529700D02*
X196430772Y-196458271D01*
X196430772Y-196458271D02*
X196359344Y-196315414D01*
X196359344Y-196315414D02*
X196359344Y-195886842D01*
X196359344Y-195886842D02*
X196430772Y-195743985D01*
X196430772Y-195743985D02*
X196502201Y-195672557D01*
X196502201Y-195672557D02*
X196645058Y-195601128D01*
X196645058Y-195601128D02*
X196930772Y-195601128D01*
X196930772Y-195601128D02*
X197073630Y-195672557D01*
X198359344Y-196601128D02*
X198359344Y-195815414D01*
X198359344Y-195815414D02*
X198287915Y-195672557D01*
X198287915Y-195672557D02*
X198145058Y-195601128D01*
X198145058Y-195601128D02*
X197859344Y-195601128D01*
X197859344Y-195601128D02*
X197716486Y-195672557D01*
X198359344Y-196529700D02*
X198216486Y-196601128D01*
X198216486Y-196601128D02*
X197859344Y-196601128D01*
X197859344Y-196601128D02*
X197716486Y-196529700D01*
X197716486Y-196529700D02*
X197645058Y-196386842D01*
X197645058Y-196386842D02*
X197645058Y-196243985D01*
X197645058Y-196243985D02*
X197716486Y-196101128D01*
X197716486Y-196101128D02*
X197859344Y-196029700D01*
X197859344Y-196029700D02*
X198216486Y-196029700D01*
X198216486Y-196029700D02*
X198359344Y-195958271D01*
X199716487Y-196601128D02*
X199716487Y-195101128D01*
X199716487Y-196529700D02*
X199573629Y-196601128D01*
X199573629Y-196601128D02*
X199287915Y-196601128D01*
X199287915Y-196601128D02*
X199145058Y-196529700D01*
X199145058Y-196529700D02*
X199073629Y-196458271D01*
X199073629Y-196458271D02*
X199002201Y-196315414D01*
X199002201Y-196315414D02*
X199002201Y-195886842D01*
X199002201Y-195886842D02*
X199073629Y-195743985D01*
X199073629Y-195743985D02*
X199145058Y-195672557D01*
X199145058Y-195672557D02*
X199287915Y-195601128D01*
X199287915Y-195601128D02*
X199573629Y-195601128D01*
X199573629Y-195601128D02*
X199716487Y-195672557D01*
X201430772Y-195101128D02*
X202430772Y-195101128D01*
X202430772Y-195101128D02*
X201787915Y-196601128D01*
X203002200Y-196458271D02*
X203073629Y-196529700D01*
X203073629Y-196529700D02*
X203002200Y-196601128D01*
X203002200Y-196601128D02*
X202930772Y-196529700D01*
X202930772Y-196529700D02*
X203002200Y-196458271D01*
X203002200Y-196458271D02*
X203002200Y-196601128D01*
X204002201Y-195101128D02*
X204145058Y-195101128D01*
X204145058Y-195101128D02*
X204287915Y-195172557D01*
X204287915Y-195172557D02*
X204359344Y-195243985D01*
X204359344Y-195243985D02*
X204430772Y-195386842D01*
X204430772Y-195386842D02*
X204502201Y-195672557D01*
X204502201Y-195672557D02*
X204502201Y-196029700D01*
X204502201Y-196029700D02*
X204430772Y-196315414D01*
X204430772Y-196315414D02*
X204359344Y-196458271D01*
X204359344Y-196458271D02*
X204287915Y-196529700D01*
X204287915Y-196529700D02*
X204145058Y-196601128D01*
X204145058Y-196601128D02*
X204002201Y-196601128D01*
X204002201Y-196601128D02*
X203859344Y-196529700D01*
X203859344Y-196529700D02*
X203787915Y-196458271D01*
X203787915Y-196458271D02*
X203716486Y-196315414D01*
X203716486Y-196315414D02*
X203645058Y-196029700D01*
X203645058Y-196029700D02*
X203645058Y-195672557D01*
X203645058Y-195672557D02*
X203716486Y-195386842D01*
X203716486Y-195386842D02*
X203787915Y-195243985D01*
X203787915Y-195243985D02*
X203859344Y-195172557D01*
X203859344Y-195172557D02*
X204002201Y-195101128D01*
X205145057Y-196458271D02*
X205216486Y-196529700D01*
X205216486Y-196529700D02*
X205145057Y-196601128D01*
X205145057Y-196601128D02*
X205073629Y-196529700D01*
X205073629Y-196529700D02*
X205145057Y-196458271D01*
X205145057Y-196458271D02*
X205145057Y-196601128D01*
X206645058Y-196601128D02*
X205787915Y-196601128D01*
X206216486Y-196601128D02*
X206216486Y-195101128D01*
X206216486Y-195101128D02*
X206073629Y-195315414D01*
X206073629Y-195315414D02*
X205930772Y-195458271D01*
X205930772Y-195458271D02*
X205787915Y-195529700D01*
D10*
D11*
X177002200Y-191507200D02*
X285002200Y-191507200D01*
D10*
D12*
X264216485Y-193801128D02*
X263716485Y-193086842D01*
X263359342Y-193801128D02*
X263359342Y-192301128D01*
X263359342Y-192301128D02*
X263930771Y-192301128D01*
X263930771Y-192301128D02*
X264073628Y-192372557D01*
X264073628Y-192372557D02*
X264145057Y-192443985D01*
X264145057Y-192443985D02*
X264216485Y-192586842D01*
X264216485Y-192586842D02*
X264216485Y-192801128D01*
X264216485Y-192801128D02*
X264145057Y-192943985D01*
X264145057Y-192943985D02*
X264073628Y-193015414D01*
X264073628Y-193015414D02*
X263930771Y-193086842D01*
X263930771Y-193086842D02*
X263359342Y-193086842D01*
X265430771Y-193729700D02*
X265287914Y-193801128D01*
X265287914Y-193801128D02*
X265002200Y-193801128D01*
X265002200Y-193801128D02*
X264859342Y-193729700D01*
X264859342Y-193729700D02*
X264787914Y-193586842D01*
X264787914Y-193586842D02*
X264787914Y-193015414D01*
X264787914Y-193015414D02*
X264859342Y-192872557D01*
X264859342Y-192872557D02*
X265002200Y-192801128D01*
X265002200Y-192801128D02*
X265287914Y-192801128D01*
X265287914Y-192801128D02*
X265430771Y-192872557D01*
X265430771Y-192872557D02*
X265502200Y-193015414D01*
X265502200Y-193015414D02*
X265502200Y-193158271D01*
X265502200Y-193158271D02*
X264787914Y-193301128D01*
X266002199Y-192801128D02*
X266359342Y-193801128D01*
X266359342Y-193801128D02*
X266716485Y-192801128D01*
X267287913Y-193658271D02*
X267359342Y-193729700D01*
X267359342Y-193729700D02*
X267287913Y-193801128D01*
X267287913Y-193801128D02*
X267216485Y-193729700D01*
X267216485Y-193729700D02*
X267287913Y-193658271D01*
X267287913Y-193658271D02*
X267287913Y-193801128D01*
X267287913Y-192872557D02*
X267359342Y-192943985D01*
X267359342Y-192943985D02*
X267287913Y-193015414D01*
X267287913Y-193015414D02*
X267216485Y-192943985D01*
X267216485Y-192943985D02*
X267287913Y-192872557D01*
X267287913Y-192872557D02*
X267287913Y-193015414D01*
D10*
D11*
X178287914Y-193729700D02*
X178502200Y-193801128D01*
X178502200Y-193801128D02*
X178859342Y-193801128D01*
X178859342Y-193801128D02*
X179002200Y-193729700D01*
X179002200Y-193729700D02*
X179073628Y-193658271D01*
X179073628Y-193658271D02*
X179145057Y-193515414D01*
X179145057Y-193515414D02*
X179145057Y-193372557D01*
X179145057Y-193372557D02*
X179073628Y-193229700D01*
X179073628Y-193229700D02*
X179002200Y-193158271D01*
X179002200Y-193158271D02*
X178859342Y-193086842D01*
X178859342Y-193086842D02*
X178573628Y-193015414D01*
X178573628Y-193015414D02*
X178430771Y-192943985D01*
X178430771Y-192943985D02*
X178359342Y-192872557D01*
X178359342Y-192872557D02*
X178287914Y-192729700D01*
X178287914Y-192729700D02*
X178287914Y-192586842D01*
X178287914Y-192586842D02*
X178359342Y-192443985D01*
X178359342Y-192443985D02*
X178430771Y-192372557D01*
X178430771Y-192372557D02*
X178573628Y-192301128D01*
X178573628Y-192301128D02*
X178930771Y-192301128D01*
X178930771Y-192301128D02*
X179145057Y-192372557D01*
X179787913Y-193801128D02*
X179787913Y-192801128D01*
X179787913Y-192301128D02*
X179716485Y-192372557D01*
X179716485Y-192372557D02*
X179787913Y-192443985D01*
X179787913Y-192443985D02*
X179859342Y-192372557D01*
X179859342Y-192372557D02*
X179787913Y-192301128D01*
X179787913Y-192301128D02*
X179787913Y-192443985D01*
X180359342Y-192801128D02*
X181145057Y-192801128D01*
X181145057Y-192801128D02*
X180359342Y-193801128D01*
X180359342Y-193801128D02*
X181145057Y-193801128D01*
X182287914Y-193729700D02*
X182145057Y-193801128D01*
X182145057Y-193801128D02*
X181859343Y-193801128D01*
X181859343Y-193801128D02*
X181716485Y-193729700D01*
X181716485Y-193729700D02*
X181645057Y-193586842D01*
X181645057Y-193586842D02*
X181645057Y-193015414D01*
X181645057Y-193015414D02*
X181716485Y-192872557D01*
X181716485Y-192872557D02*
X181859343Y-192801128D01*
X181859343Y-192801128D02*
X182145057Y-192801128D01*
X182145057Y-192801128D02*
X182287914Y-192872557D01*
X182287914Y-192872557D02*
X182359343Y-193015414D01*
X182359343Y-193015414D02*
X182359343Y-193158271D01*
X182359343Y-193158271D02*
X181645057Y-193301128D01*
X183002199Y-193658271D02*
X183073628Y-193729700D01*
X183073628Y-193729700D02*
X183002199Y-193801128D01*
X183002199Y-193801128D02*
X182930771Y-193729700D01*
X182930771Y-193729700D02*
X183002199Y-193658271D01*
X183002199Y-193658271D02*
X183002199Y-193801128D01*
X183002199Y-192872557D02*
X183073628Y-192943985D01*
X183073628Y-192943985D02*
X183002199Y-193015414D01*
X183002199Y-193015414D02*
X182930771Y-192943985D01*
X182930771Y-192943985D02*
X183002199Y-192872557D01*
X183002199Y-192872557D02*
X183002199Y-193015414D01*
X184787914Y-193372557D02*
X185502200Y-193372557D01*
X184645057Y-193801128D02*
X185145057Y-192301128D01*
X185145057Y-192301128D02*
X185645057Y-193801128D01*
X186787914Y-192801128D02*
X186787914Y-193801128D01*
X186430771Y-192229700D02*
X186073628Y-193301128D01*
X186073628Y-193301128D02*
X187002199Y-193301128D01*
D10*
D11*
X263359342Y-196601128D02*
X263359342Y-195101128D01*
X264716486Y-196601128D02*
X264716486Y-195101128D01*
X264716486Y-196529700D02*
X264573628Y-196601128D01*
X264573628Y-196601128D02*
X264287914Y-196601128D01*
X264287914Y-196601128D02*
X264145057Y-196529700D01*
X264145057Y-196529700D02*
X264073628Y-196458271D01*
X264073628Y-196458271D02*
X264002200Y-196315414D01*
X264002200Y-196315414D02*
X264002200Y-195886842D01*
X264002200Y-195886842D02*
X264073628Y-195743985D01*
X264073628Y-195743985D02*
X264145057Y-195672557D01*
X264145057Y-195672557D02*
X264287914Y-195601128D01*
X264287914Y-195601128D02*
X264573628Y-195601128D01*
X264573628Y-195601128D02*
X264716486Y-195672557D01*
X265430771Y-196458271D02*
X265502200Y-196529700D01*
X265502200Y-196529700D02*
X265430771Y-196601128D01*
X265430771Y-196601128D02*
X265359343Y-196529700D01*
X265359343Y-196529700D02*
X265430771Y-196458271D01*
X265430771Y-196458271D02*
X265430771Y-196601128D01*
X265430771Y-195672557D02*
X265502200Y-195743985D01*
X265502200Y-195743985D02*
X265430771Y-195815414D01*
X265430771Y-195815414D02*
X265359343Y-195743985D01*
X265359343Y-195743985D02*
X265430771Y-195672557D01*
X265430771Y-195672557D02*
X265430771Y-195815414D01*
X268073629Y-196601128D02*
X267216486Y-196601128D01*
X267645057Y-196601128D02*
X267645057Y-195101128D01*
X267645057Y-195101128D02*
X267502200Y-195315414D01*
X267502200Y-195315414D02*
X267359343Y-195458271D01*
X267359343Y-195458271D02*
X267216486Y-195529700D01*
X269787914Y-195029700D02*
X268502200Y-196958271D01*
X271073629Y-196601128D02*
X270216486Y-196601128D01*
X270645057Y-196601128D02*
X270645057Y-195101128D01*
X270645057Y-195101128D02*
X270502200Y-195315414D01*
X270502200Y-195315414D02*
X270359343Y-195458271D01*
X270359343Y-195458271D02*
X270216486Y-195529700D01*
D10*
D11*
X177002200Y-187507200D02*
X285002200Y-187507200D01*
D10*
D13*
X178430771Y-188232438D02*
X179573628Y-188232438D01*
X178752200Y-190232438D02*
X179002200Y-188232438D01*
X179978390Y-190232438D02*
X180145057Y-188899104D01*
X180228390Y-188232438D02*
X180121247Y-188327676D01*
X180121247Y-188327676D02*
X180204581Y-188422914D01*
X180204581Y-188422914D02*
X180311724Y-188327676D01*
X180311724Y-188327676D02*
X180228390Y-188232438D01*
X180228390Y-188232438D02*
X180204581Y-188422914D01*
X180799819Y-188899104D02*
X181561723Y-188899104D01*
X181168866Y-188232438D02*
X180954581Y-189946723D01*
X180954581Y-189946723D02*
X181026009Y-190137200D01*
X181026009Y-190137200D02*
X181204581Y-190232438D01*
X181204581Y-190232438D02*
X181395057Y-190232438D01*
X182335533Y-190232438D02*
X182156961Y-190137200D01*
X182156961Y-190137200D02*
X182085533Y-189946723D01*
X182085533Y-189946723D02*
X182299818Y-188232438D01*
X183859342Y-190137200D02*
X183656961Y-190232438D01*
X183656961Y-190232438D02*
X183276008Y-190232438D01*
X183276008Y-190232438D02*
X183097437Y-190137200D01*
X183097437Y-190137200D02*
X183026008Y-189946723D01*
X183026008Y-189946723D02*
X183121247Y-189184819D01*
X183121247Y-189184819D02*
X183240294Y-188994342D01*
X183240294Y-188994342D02*
X183442675Y-188899104D01*
X183442675Y-188899104D02*
X183823627Y-188899104D01*
X183823627Y-188899104D02*
X184002199Y-188994342D01*
X184002199Y-188994342D02*
X184073627Y-189184819D01*
X184073627Y-189184819D02*
X184049818Y-189375295D01*
X184049818Y-189375295D02*
X183073627Y-189565771D01*
X184811723Y-190041961D02*
X184895056Y-190137200D01*
X184895056Y-190137200D02*
X184787913Y-190232438D01*
X184787913Y-190232438D02*
X184704580Y-190137200D01*
X184704580Y-190137200D02*
X184811723Y-190041961D01*
X184811723Y-190041961D02*
X184787913Y-190232438D01*
X184942675Y-188994342D02*
X185026008Y-189089580D01*
X185026008Y-189089580D02*
X184918866Y-189184819D01*
X184918866Y-189184819D02*
X184835532Y-189089580D01*
X184835532Y-189089580D02*
X184942675Y-188994342D01*
X184942675Y-188994342D02*
X184918866Y-189184819D01*
D10*
D11*
X178859342Y-185615414D02*
X178359342Y-185615414D01*
X178359342Y-186401128D02*
X178359342Y-184901128D01*
X178359342Y-184901128D02*
X179073628Y-184901128D01*
X179645056Y-186401128D02*
X179645056Y-185401128D01*
X179645056Y-184901128D02*
X179573628Y-184972557D01*
X179573628Y-184972557D02*
X179645056Y-185043985D01*
X179645056Y-185043985D02*
X179716485Y-184972557D01*
X179716485Y-184972557D02*
X179645056Y-184901128D01*
X179645056Y-184901128D02*
X179645056Y-185043985D01*
X180573628Y-186401128D02*
X180430771Y-186329700D01*
X180430771Y-186329700D02*
X180359342Y-186186842D01*
X180359342Y-186186842D02*
X180359342Y-184901128D01*
X181716485Y-186329700D02*
X181573628Y-186401128D01*
X181573628Y-186401128D02*
X181287914Y-186401128D01*
X181287914Y-186401128D02*
X181145056Y-186329700D01*
X181145056Y-186329700D02*
X181073628Y-186186842D01*
X181073628Y-186186842D02*
X181073628Y-185615414D01*
X181073628Y-185615414D02*
X181145056Y-185472557D01*
X181145056Y-185472557D02*
X181287914Y-185401128D01*
X181287914Y-185401128D02*
X181573628Y-185401128D01*
X181573628Y-185401128D02*
X181716485Y-185472557D01*
X181716485Y-185472557D02*
X181787914Y-185615414D01*
X181787914Y-185615414D02*
X181787914Y-185758271D01*
X181787914Y-185758271D02*
X181073628Y-185901128D01*
X182430770Y-186258271D02*
X182502199Y-186329700D01*
X182502199Y-186329700D02*
X182430770Y-186401128D01*
X182430770Y-186401128D02*
X182359342Y-186329700D01*
X182359342Y-186329700D02*
X182430770Y-186258271D01*
X182430770Y-186258271D02*
X182430770Y-186401128D01*
X182430770Y-185472557D02*
X182502199Y-185543985D01*
X182502199Y-185543985D02*
X182430770Y-185615414D01*
X182430770Y-185615414D02*
X182359342Y-185543985D01*
X182359342Y-185543985D02*
X182430770Y-185472557D01*
X182430770Y-185472557D02*
X182430770Y-185615414D01*
X184287913Y-186401128D02*
X184287913Y-184901128D01*
X184287913Y-184901128D02*
X184859342Y-184901128D01*
X184859342Y-184901128D02*
X185002199Y-184972557D01*
X185002199Y-184972557D02*
X185073628Y-185043985D01*
X185073628Y-185043985D02*
X185145056Y-185186842D01*
X185145056Y-185186842D02*
X185145056Y-185401128D01*
X185145056Y-185401128D02*
X185073628Y-185543985D01*
X185073628Y-185543985D02*
X185002199Y-185615414D01*
X185002199Y-185615414D02*
X184859342Y-185686842D01*
X184859342Y-185686842D02*
X184287913Y-185686842D01*
X186645056Y-186258271D02*
X186573628Y-186329700D01*
X186573628Y-186329700D02*
X186359342Y-186401128D01*
X186359342Y-186401128D02*
X186216485Y-186401128D01*
X186216485Y-186401128D02*
X186002199Y-186329700D01*
X186002199Y-186329700D02*
X185859342Y-186186842D01*
X185859342Y-186186842D02*
X185787913Y-186043985D01*
X185787913Y-186043985D02*
X185716485Y-185758271D01*
X185716485Y-185758271D02*
X185716485Y-185543985D01*
X185716485Y-185543985D02*
X185787913Y-185258271D01*
X185787913Y-185258271D02*
X185859342Y-185115414D01*
X185859342Y-185115414D02*
X186002199Y-184972557D01*
X186002199Y-184972557D02*
X186216485Y-184901128D01*
X186216485Y-184901128D02*
X186359342Y-184901128D01*
X186359342Y-184901128D02*
X186573628Y-184972557D01*
X186573628Y-184972557D02*
X186645056Y-185043985D01*
X187787913Y-185615414D02*
X188002199Y-185686842D01*
X188002199Y-185686842D02*
X188073628Y-185758271D01*
X188073628Y-185758271D02*
X188145056Y-185901128D01*
X188145056Y-185901128D02*
X188145056Y-186115414D01*
X188145056Y-186115414D02*
X188073628Y-186258271D01*
X188073628Y-186258271D02*
X188002199Y-186329700D01*
X188002199Y-186329700D02*
X187859342Y-186401128D01*
X187859342Y-186401128D02*
X187287913Y-186401128D01*
X187287913Y-186401128D02*
X187287913Y-184901128D01*
X187287913Y-184901128D02*
X187787913Y-184901128D01*
X187787913Y-184901128D02*
X187930771Y-184972557D01*
X187930771Y-184972557D02*
X188002199Y-185043985D01*
X188002199Y-185043985D02*
X188073628Y-185186842D01*
X188073628Y-185186842D02*
X188073628Y-185329700D01*
X188073628Y-185329700D02*
X188002199Y-185472557D01*
X188002199Y-185472557D02*
X187930771Y-185543985D01*
X187930771Y-185543985D02*
X187787913Y-185615414D01*
X187787913Y-185615414D02*
X187287913Y-185615414D01*
X188430771Y-186543985D02*
X189573628Y-186543985D01*
X190216485Y-184901128D02*
X190502199Y-184901128D01*
X190502199Y-184901128D02*
X190645056Y-184972557D01*
X190645056Y-184972557D02*
X190787913Y-185115414D01*
X190787913Y-185115414D02*
X190859342Y-185401128D01*
X190859342Y-185401128D02*
X190859342Y-185901128D01*
X190859342Y-185901128D02*
X190787913Y-186186842D01*
X190787913Y-186186842D02*
X190645056Y-186329700D01*
X190645056Y-186329700D02*
X190502199Y-186401128D01*
X190502199Y-186401128D02*
X190216485Y-186401128D01*
X190216485Y-186401128D02*
X190073628Y-186329700D01*
X190073628Y-186329700D02*
X189930770Y-186186842D01*
X189930770Y-186186842D02*
X189859342Y-185901128D01*
X189859342Y-185901128D02*
X189859342Y-185401128D01*
X189859342Y-185401128D02*
X189930770Y-185115414D01*
X189930770Y-185115414D02*
X190073628Y-184972557D01*
X190073628Y-184972557D02*
X190216485Y-184901128D01*
X191359342Y-186401128D02*
X192145057Y-185401128D01*
X191359342Y-185401128D02*
X192145057Y-186401128D01*
X192716485Y-186401128D02*
X192716485Y-185401128D01*
X192716485Y-184901128D02*
X192645057Y-184972557D01*
X192645057Y-184972557D02*
X192716485Y-185043985D01*
X192716485Y-185043985D02*
X192787914Y-184972557D01*
X192787914Y-184972557D02*
X192716485Y-184901128D01*
X192716485Y-184901128D02*
X192716485Y-185043985D01*
X193430771Y-186401128D02*
X193430771Y-185401128D01*
X193430771Y-185543985D02*
X193502200Y-185472557D01*
X193502200Y-185472557D02*
X193645057Y-185401128D01*
X193645057Y-185401128D02*
X193859343Y-185401128D01*
X193859343Y-185401128D02*
X194002200Y-185472557D01*
X194002200Y-185472557D02*
X194073629Y-185615414D01*
X194073629Y-185615414D02*
X194073629Y-186401128D01*
X194073629Y-185615414D02*
X194145057Y-185472557D01*
X194145057Y-185472557D02*
X194287914Y-185401128D01*
X194287914Y-185401128D02*
X194502200Y-185401128D01*
X194502200Y-185401128D02*
X194645057Y-185472557D01*
X194645057Y-185472557D02*
X194716486Y-185615414D01*
X194716486Y-185615414D02*
X194716486Y-186401128D01*
X196002200Y-186329700D02*
X195859343Y-186401128D01*
X195859343Y-186401128D02*
X195573629Y-186401128D01*
X195573629Y-186401128D02*
X195430771Y-186329700D01*
X195430771Y-186329700D02*
X195359343Y-186186842D01*
X195359343Y-186186842D02*
X195359343Y-185615414D01*
X195359343Y-185615414D02*
X195430771Y-185472557D01*
X195430771Y-185472557D02*
X195573629Y-185401128D01*
X195573629Y-185401128D02*
X195859343Y-185401128D01*
X195859343Y-185401128D02*
X196002200Y-185472557D01*
X196002200Y-185472557D02*
X196073629Y-185615414D01*
X196073629Y-185615414D02*
X196073629Y-185758271D01*
X196073629Y-185758271D02*
X195359343Y-185901128D01*
X196502200Y-185401128D02*
X197073628Y-185401128D01*
X196716485Y-184901128D02*
X196716485Y-186186842D01*
X196716485Y-186186842D02*
X196787914Y-186329700D01*
X196787914Y-186329700D02*
X196930771Y-186401128D01*
X196930771Y-186401128D02*
X197073628Y-186401128D01*
X197573628Y-186401128D02*
X197573628Y-185401128D01*
X197573628Y-185686842D02*
X197645057Y-185543985D01*
X197645057Y-185543985D02*
X197716486Y-185472557D01*
X197716486Y-185472557D02*
X197859343Y-185401128D01*
X197859343Y-185401128D02*
X198002200Y-185401128D01*
X198716485Y-186401128D02*
X198573628Y-186329700D01*
X198573628Y-186329700D02*
X198502199Y-186258271D01*
X198502199Y-186258271D02*
X198430771Y-186115414D01*
X198430771Y-186115414D02*
X198430771Y-185686842D01*
X198430771Y-185686842D02*
X198502199Y-185543985D01*
X198502199Y-185543985D02*
X198573628Y-185472557D01*
X198573628Y-185472557D02*
X198716485Y-185401128D01*
X198716485Y-185401128D02*
X198930771Y-185401128D01*
X198930771Y-185401128D02*
X199073628Y-185472557D01*
X199073628Y-185472557D02*
X199145057Y-185543985D01*
X199145057Y-185543985D02*
X199216485Y-185686842D01*
X199216485Y-185686842D02*
X199216485Y-186115414D01*
X199216485Y-186115414D02*
X199145057Y-186258271D01*
X199145057Y-186258271D02*
X199073628Y-186329700D01*
X199073628Y-186329700D02*
X198930771Y-186401128D01*
X198930771Y-186401128D02*
X198716485Y-186401128D01*
X199859342Y-186258271D02*
X199930771Y-186329700D01*
X199930771Y-186329700D02*
X199859342Y-186401128D01*
X199859342Y-186401128D02*
X199787914Y-186329700D01*
X199787914Y-186329700D02*
X199859342Y-186258271D01*
X199859342Y-186258271D02*
X199859342Y-186401128D01*
X200573628Y-186401128D02*
X200573628Y-184901128D01*
X200716486Y-185829700D02*
X201145057Y-186401128D01*
X201145057Y-185401128D02*
X200573628Y-185972557D01*
X201787914Y-186401128D02*
X201787914Y-185401128D01*
X201787914Y-184901128D02*
X201716486Y-184972557D01*
X201716486Y-184972557D02*
X201787914Y-185043985D01*
X201787914Y-185043985D02*
X201859343Y-184972557D01*
X201859343Y-184972557D02*
X201787914Y-184901128D01*
X201787914Y-184901128D02*
X201787914Y-185043985D01*
X203145058Y-186329700D02*
X203002200Y-186401128D01*
X203002200Y-186401128D02*
X202716486Y-186401128D01*
X202716486Y-186401128D02*
X202573629Y-186329700D01*
X202573629Y-186329700D02*
X202502200Y-186258271D01*
X202502200Y-186258271D02*
X202430772Y-186115414D01*
X202430772Y-186115414D02*
X202430772Y-185686842D01*
X202430772Y-185686842D02*
X202502200Y-185543985D01*
X202502200Y-185543985D02*
X202573629Y-185472557D01*
X202573629Y-185472557D02*
X202716486Y-185401128D01*
X202716486Y-185401128D02*
X203002200Y-185401128D01*
X203002200Y-185401128D02*
X203145058Y-185472557D01*
X204430772Y-186401128D02*
X204430772Y-185615414D01*
X204430772Y-185615414D02*
X204359343Y-185472557D01*
X204359343Y-185472557D02*
X204216486Y-185401128D01*
X204216486Y-185401128D02*
X203930772Y-185401128D01*
X203930772Y-185401128D02*
X203787914Y-185472557D01*
X204430772Y-186329700D02*
X204287914Y-186401128D01*
X204287914Y-186401128D02*
X203930772Y-186401128D01*
X203930772Y-186401128D02*
X203787914Y-186329700D01*
X203787914Y-186329700D02*
X203716486Y-186186842D01*
X203716486Y-186186842D02*
X203716486Y-186043985D01*
X203716486Y-186043985D02*
X203787914Y-185901128D01*
X203787914Y-185901128D02*
X203930772Y-185829700D01*
X203930772Y-185829700D02*
X204287914Y-185829700D01*
X204287914Y-185829700D02*
X204430772Y-185758271D01*
X205787915Y-186401128D02*
X205787915Y-184901128D01*
X205787915Y-186329700D02*
X205645057Y-186401128D01*
X205645057Y-186401128D02*
X205359343Y-186401128D01*
X205359343Y-186401128D02*
X205216486Y-186329700D01*
X205216486Y-186329700D02*
X205145057Y-186258271D01*
X205145057Y-186258271D02*
X205073629Y-186115414D01*
X205073629Y-186115414D02*
X205073629Y-185686842D01*
X205073629Y-185686842D02*
X205145057Y-185543985D01*
X205145057Y-185543985D02*
X205216486Y-185472557D01*
X205216486Y-185472557D02*
X205359343Y-185401128D01*
X205359343Y-185401128D02*
X205645057Y-185401128D01*
X205645057Y-185401128D02*
X205787915Y-185472557D01*
X206145058Y-186543985D02*
X207287915Y-186543985D01*
X207645057Y-185401128D02*
X207645057Y-186901128D01*
X207645057Y-185472557D02*
X207787915Y-185401128D01*
X207787915Y-185401128D02*
X208073629Y-185401128D01*
X208073629Y-185401128D02*
X208216486Y-185472557D01*
X208216486Y-185472557D02*
X208287915Y-185543985D01*
X208287915Y-185543985D02*
X208359343Y-185686842D01*
X208359343Y-185686842D02*
X208359343Y-186115414D01*
X208359343Y-186115414D02*
X208287915Y-186258271D01*
X208287915Y-186258271D02*
X208216486Y-186329700D01*
X208216486Y-186329700D02*
X208073629Y-186401128D01*
X208073629Y-186401128D02*
X207787915Y-186401128D01*
X207787915Y-186401128D02*
X207645057Y-186329700D01*
X209645058Y-186329700D02*
X209502200Y-186401128D01*
X209502200Y-186401128D02*
X209216486Y-186401128D01*
X209216486Y-186401128D02*
X209073629Y-186329700D01*
X209073629Y-186329700D02*
X209002200Y-186258271D01*
X209002200Y-186258271D02*
X208930772Y-186115414D01*
X208930772Y-186115414D02*
X208930772Y-185686842D01*
X208930772Y-185686842D02*
X209002200Y-185543985D01*
X209002200Y-185543985D02*
X209073629Y-185472557D01*
X209073629Y-185472557D02*
X209216486Y-185401128D01*
X209216486Y-185401128D02*
X209502200Y-185401128D01*
X209502200Y-185401128D02*
X209645058Y-185472557D01*
X210287914Y-186401128D02*
X210287914Y-184901128D01*
X210287914Y-185472557D02*
X210430772Y-185401128D01*
X210430772Y-185401128D02*
X210716486Y-185401128D01*
X210716486Y-185401128D02*
X210859343Y-185472557D01*
X210859343Y-185472557D02*
X210930772Y-185543985D01*
X210930772Y-185543985D02*
X211002200Y-185686842D01*
X211002200Y-185686842D02*
X211002200Y-186115414D01*
X211002200Y-186115414D02*
X210930772Y-186258271D01*
X210930772Y-186258271D02*
X210859343Y-186329700D01*
X210859343Y-186329700D02*
X210716486Y-186401128D01*
X210716486Y-186401128D02*
X210430772Y-186401128D01*
X210430772Y-186401128D02*
X210287914Y-186329700D01*
D10*
D11*
X177002200Y-181507200D02*
X285002200Y-181507200D01*
D10*
D11*
X178287914Y-183629700D02*
X178502200Y-183701128D01*
X178502200Y-183701128D02*
X178859342Y-183701128D01*
X178859342Y-183701128D02*
X179002200Y-183629700D01*
X179002200Y-183629700D02*
X179073628Y-183558271D01*
X179073628Y-183558271D02*
X179145057Y-183415414D01*
X179145057Y-183415414D02*
X179145057Y-183272557D01*
X179145057Y-183272557D02*
X179073628Y-183129700D01*
X179073628Y-183129700D02*
X179002200Y-183058271D01*
X179002200Y-183058271D02*
X178859342Y-182986842D01*
X178859342Y-182986842D02*
X178573628Y-182915414D01*
X178573628Y-182915414D02*
X178430771Y-182843985D01*
X178430771Y-182843985D02*
X178359342Y-182772557D01*
X178359342Y-182772557D02*
X178287914Y-182629700D01*
X178287914Y-182629700D02*
X178287914Y-182486842D01*
X178287914Y-182486842D02*
X178359342Y-182343985D01*
X178359342Y-182343985D02*
X178430771Y-182272557D01*
X178430771Y-182272557D02*
X178573628Y-182201128D01*
X178573628Y-182201128D02*
X178930771Y-182201128D01*
X178930771Y-182201128D02*
X179145057Y-182272557D01*
X179787913Y-183701128D02*
X179787913Y-182201128D01*
X180430771Y-183701128D02*
X180430771Y-182915414D01*
X180430771Y-182915414D02*
X180359342Y-182772557D01*
X180359342Y-182772557D02*
X180216485Y-182701128D01*
X180216485Y-182701128D02*
X180002199Y-182701128D01*
X180002199Y-182701128D02*
X179859342Y-182772557D01*
X179859342Y-182772557D02*
X179787913Y-182843985D01*
X181716485Y-183629700D02*
X181573628Y-183701128D01*
X181573628Y-183701128D02*
X181287914Y-183701128D01*
X181287914Y-183701128D02*
X181145056Y-183629700D01*
X181145056Y-183629700D02*
X181073628Y-183486842D01*
X181073628Y-183486842D02*
X181073628Y-182915414D01*
X181073628Y-182915414D02*
X181145056Y-182772557D01*
X181145056Y-182772557D02*
X181287914Y-182701128D01*
X181287914Y-182701128D02*
X181573628Y-182701128D01*
X181573628Y-182701128D02*
X181716485Y-182772557D01*
X181716485Y-182772557D02*
X181787914Y-182915414D01*
X181787914Y-182915414D02*
X181787914Y-183058271D01*
X181787914Y-183058271D02*
X181073628Y-183201128D01*
X183002199Y-183629700D02*
X182859342Y-183701128D01*
X182859342Y-183701128D02*
X182573628Y-183701128D01*
X182573628Y-183701128D02*
X182430770Y-183629700D01*
X182430770Y-183629700D02*
X182359342Y-183486842D01*
X182359342Y-183486842D02*
X182359342Y-182915414D01*
X182359342Y-182915414D02*
X182430770Y-182772557D01*
X182430770Y-182772557D02*
X182573628Y-182701128D01*
X182573628Y-182701128D02*
X182859342Y-182701128D01*
X182859342Y-182701128D02*
X183002199Y-182772557D01*
X183002199Y-182772557D02*
X183073628Y-182915414D01*
X183073628Y-182915414D02*
X183073628Y-183058271D01*
X183073628Y-183058271D02*
X182359342Y-183201128D01*
X183502199Y-182701128D02*
X184073627Y-182701128D01*
X183716484Y-182201128D02*
X183716484Y-183486842D01*
X183716484Y-183486842D02*
X183787913Y-183629700D01*
X183787913Y-183629700D02*
X183930770Y-183701128D01*
X183930770Y-183701128D02*
X184073627Y-183701128D01*
X184573627Y-183558271D02*
X184645056Y-183629700D01*
X184645056Y-183629700D02*
X184573627Y-183701128D01*
X184573627Y-183701128D02*
X184502199Y-183629700D01*
X184502199Y-183629700D02*
X184573627Y-183558271D01*
X184573627Y-183558271D02*
X184573627Y-183701128D01*
X184573627Y-182772557D02*
X184645056Y-182843985D01*
X184645056Y-182843985D02*
X184573627Y-182915414D01*
X184573627Y-182915414D02*
X184502199Y-182843985D01*
X184502199Y-182843985D02*
X184573627Y-182772557D01*
X184573627Y-182772557D02*
X184573627Y-182915414D01*
D10*
D12*
D10*
D11*
D10*
D11*
D10*
D11*
D10*
D11*
D10*
D11*
X197002200Y-191507200D02*
X197002200Y-194507200D01*
D10*
D11*
X261002200Y-191507200D02*
X261002200Y-198007200D01*
D14*
X95900000Y-57700000D02*
X157100000Y-57700000D01*
X157100000Y-115600000D01*
X95900000Y-115600000D01*
X95900000Y-57700000D01*
D15*
%TO.P,C3,1*%
%TO.N,+5V*%
X149200000Y-98500000D03*
%TO.P,C3,2*%
%TO.N,GNDPWR*%
X151100000Y-98500000D03*
%TD*%
D16*
%TO.P,C1,1*%
%TO.N,3V3*%
X153250000Y-110200000D03*
%TO.P,C1,2*%
%TO.N,GNDPWR*%
X153250000Y-112100000D03*
%TD*%
D17*
%TO.P,C9,1*%
%TO.N,BTT*%
X135950000Y-67050000D03*
D18*
%TO.P,C9,2*%
%TO.N,GNDPWR*%
X138450000Y-67050000D03*
%TD*%
D19*
%TO.P,J2,1,Pin_1*%
%TO.N,GNDPWR*%
X102900000Y-91300000D03*
D20*
%TO.P,J2,2,Pin_2*%
%TO.N,3V3*%
X105440000Y-91300000D03*
%TO.P,J2,3,Pin_3*%
%TO.N,SCK*%
X107980000Y-91300000D03*
%TO.P,J2,4,Pin_4*%
%TO.N,MOSI*%
X110520000Y-91300000D03*
%TO.P,J2,5,Pin_5*%
%TO.N,RESET*%
X113060000Y-91300000D03*
%TO.P,J2,6,Pin_6*%
%TO.N,unconnected-(J2-Pin_6-Pad6)*%
X115600000Y-91300000D03*
%TO.P,J2,7,Pin_7*%
%TO.N,CS*%
X118140000Y-91300000D03*
%TO.P,J2,8,Pin_8*%
%TO.N,BLK*%
X120680000Y-91300000D03*
%TD*%
D21*
%TO.P,U3,1,GND*%
%TO.N,GNDPWR*%
X152450000Y-101050000D03*
%TO.P,U3,2,VO*%
%TO.N,3V3*%
X150150000Y-101050000D03*
D22*
X150150000Y-107350000D03*
D21*
%TO.P,U3,3,VI*%
%TO.N,+5V*%
X147850000Y-101050000D03*
%TD*%
D17*
%TO.P,C2,1*%
%TO.N,3V3*%
X148934888Y-110894888D03*
D18*
%TO.P,C2,2*%
%TO.N,GNDPWR*%
X148934888Y-113394888D03*
%TD*%
D23*
%TO.P,J3,1,VBUS*%
%TO.N,Net-(D1-A)*%
X152750000Y-74950000D03*
%TO.P,J3,2,D-*%
%TO.N,unconnected-(J3-D--Pad2)*%
X152750000Y-74300000D03*
%TO.P,J3,3,D+*%
%TO.N,unconnected-(J3-D+-Pad3)*%
X152750000Y-73650000D03*
%TO.P,J3,4,ID*%
%TO.N,unconnected-(J3-ID-Pad4)*%
X152750000Y-73000000D03*
%TO.P,J3,5,GND*%
%TO.N,GNDPWR*%
X152750000Y-72350000D03*
D24*
%TO.P,J3,6,Shield*%
X155600000Y-77400000D03*
D25*
X155600000Y-74800000D03*
X155600000Y-72500000D03*
D24*
X155600000Y-69900000D03*
%TD*%
D17*
%TO.P,C4,1*%
%TO.N,+5V*%
X148900000Y-94350000D03*
D18*
%TO.P,C4,2*%
%TO.N,GNDPWR*%
X151400000Y-94350000D03*
%TD*%
D26*
%TO.P,R1,1*%
%TO.N,BTT*%
X135887500Y-71800000D03*
%TO.P,R1,2*%
%TO.N,GNDPWR*%
X138812500Y-71800000D03*
%TD*%
D19*
%TO.P,J1,1,Pin_1*%
%TO.N,3V3*%
X140000000Y-103200000D03*
D20*
%TO.P,J1,2,Pin_2*%
%TO.N,GNDPWR*%
X137460000Y-103200000D03*
%TO.P,J1,3,Pin_3*%
%TO.N,SCL*%
X134920000Y-103200000D03*
%TO.P,J1,4,Pin_4*%
%TO.N,SDA*%
X132380000Y-103200000D03*
%TO.P,J1,5,Pin_5*%
%TO.N,INT*%
X129840000Y-103200000D03*
%TD*%
D27*
%TO.P,D1,1,K*%
%TO.N,+5V*%
X139820000Y-77700000D03*
D28*
%TO.P,D1,2,A*%
%TO.N,Net-(D1-A)*%
X149980000Y-77700000D03*
%TD*%
D29*
%TO.P,SW1,*%
%TO.N,*%
X152547500Y-80975000D03*
X152547500Y-87985000D03*
D30*
%TO.P,SW1,1,1*%
%TO.N,Net-(R2-Pad2)*%
X155037500Y-82225000D03*
%TO.P,SW1,2,2*%
%TO.N,BTT*%
X155037500Y-86725000D03*
%TD*%
D31*
%TO.P,R2,1*%
%TO.N,+5V*%
X149400000Y-85175000D03*
%TO.P,R2,2*%
%TO.N,Net-(R2-Pad2)*%
X149400000Y-82250000D03*
%TD*%
D32*
%TO.P,U5,1,3V3*%
%TO.N,unconnected-(U5-3V3-Pad1)*%
X138015000Y-61172500D03*
D33*
%TO.P,U5,2,GND*%
%TO.N,GNDPWR*%
X135475000Y-61172500D03*
%TO.P,U5,3,D15*%
%TO.N,unconnected-(U5-D15-Pad3)*%
X132935000Y-61172500D03*
%TO.P,U5,4,D2*%
%TO.N,unconnected-(U5-D2-Pad4)*%
X130395000Y-61172500D03*
%TO.P,U5,5,D4*%
%TO.N,unconnected-(U5-D4-Pad5)*%
X127855000Y-61172500D03*
%TO.P,U5,6,RX2*%
%TO.N,BTT*%
X125315000Y-61172500D03*
%TO.P,U5,7,TX2*%
%TO.N,unconnected-(U5-TX2-Pad7)*%
X122775000Y-61172500D03*
%TO.P,U5,8,D5*%
%TO.N,unconnected-(U5-D5-Pad8)*%
X120235000Y-61172500D03*
%TO.P,U5,9,D18*%
%TO.N,unconnected-(U5-D18-Pad9)*%
X117695000Y-61172500D03*
%TO.P,U5,10,D19*%
%TO.N,unconnected-(U5-D19-Pad10)*%
X115155000Y-61172500D03*
%TO.P,U5,11,D21*%
%TO.N,unconnected-(U5-D21-Pad11)*%
X112615000Y-61172500D03*
%TO.P,U5,12,RX0*%
%TO.N,unconnected-(U5-RX0-Pad12)*%
X110075000Y-61172500D03*
%TO.P,U5,13,TX0*%
%TO.N,unconnected-(U5-TX0-Pad13)*%
X107535000Y-61172500D03*
%TO.P,U5,14,D22*%
%TO.N,unconnected-(U5-D22-Pad14)*%
X104995000Y-61172500D03*
%TO.P,U5,15,D23*%
%TO.N,unconnected-(U5-D23-Pad15)*%
X102455000Y-61172500D03*
%TO.P,U5,16,EN*%
%TO.N,unconnected-(U5-EN-Pad16)*%
X102455000Y-86572500D03*
%TO.P,U5,17,VP*%
%TO.N,unconnected-(U5-VP-Pad17)*%
X104995000Y-86572500D03*
%TO.P,U5,18,VN*%
%TO.N,unconnected-(U5-VN-Pad18)*%
X107535000Y-86572500D03*
%TO.P,U5,19,D34*%
%TO.N,unconnected-(U5-D34-Pad19)*%
X110075000Y-86572500D03*
%TO.P,U5,20,D35*%
%TO.N,unconnected-(U5-D35-Pad20)*%
X112615000Y-86572500D03*
%TO.P,U5,21,D32*%
%TO.N,SCK*%
X115155000Y-86572500D03*
%TO.P,U5,22,D33*%
%TO.N,MOSI*%
X117695000Y-86572500D03*
%TO.P,U5,23,D25*%
%TO.N,RESET*%
X120235000Y-86572500D03*
%TO.P,U5,24,D26*%
%TO.N,CS*%
X122775000Y-86572500D03*
%TO.P,U5,25,D27*%
%TO.N,BLK*%
X125315000Y-86572500D03*
%TO.P,U5,26,D14*%
%TO.N,SDA*%
X127855000Y-86572500D03*
%TO.P,U5,27,D12*%
%TO.N,unconnected-(U5-D12-Pad27)*%
X130395000Y-86572500D03*
%TO.P,U5,28,D13*%
%TO.N,SCL*%
X132935000Y-86572500D03*
%TO.P,U5,29,GND*%
%TO.N,GNDPWR*%
X135475000Y-86572500D03*
%TO.P,U5,30,VIN*%
%TO.N,+5V*%
X138015000Y-86572500D03*
%TD*%
D34*
%TO.N,Net-(D1-A)*%
X152599000Y-75081000D02*
X152750000Y-75081000D01*
X149980000Y-77700000D02*
X152599000Y-75081000D01*
D35*
%TO.N,BLK*%
X120680000Y-91207500D02*
X120680000Y-91300000D01*
X125315000Y-86572500D02*
X120680000Y-91207500D01*
D34*
%TO.N,3V3*%
X148934888Y-110894888D02*
X152555112Y-110894888D01*
X152555112Y-110894888D02*
X153250000Y-110200000D01*
X153000000Y-110200000D02*
X150150000Y-107350000D01*
X153250000Y-110200000D02*
X153000000Y-110200000D01*
D35*
%TO.N,+5V*%
X148900000Y-85675000D02*
X148900000Y-94350000D01*
X149400000Y-85175000D02*
X148900000Y-85675000D01*
D34*
X148900000Y-94350000D02*
X145792500Y-94350000D01*
X138015000Y-79505000D02*
X139820000Y-77700000D01*
X148675000Y-98500000D02*
X148675000Y-100225000D01*
X148900000Y-94350000D02*
X148900000Y-98275000D01*
X148900000Y-98275000D02*
X148675000Y-98500000D01*
X145792500Y-94350000D02*
X138015000Y-86572500D01*
X147850000Y-101050000D02*
X147850000Y-100050000D01*
X138015000Y-86572500D02*
X138015000Y-79505000D01*
X147850000Y-100050000D02*
X148300000Y-99600000D01*
X148675000Y-100225000D02*
X147850000Y-101050000D01*
D35*
%TO.N,Net-(D1-A)*%
X152750000Y-74950000D02*
X152730000Y-74950000D01*
%TO.N,SCK*%
X113427500Y-88300000D02*
X110980000Y-88300000D01*
X110980000Y-88300000D02*
X107980000Y-91300000D01*
X115155000Y-86572500D02*
X113427500Y-88300000D01*
%TO.N,MOSI*%
X117695000Y-86572500D02*
X115317500Y-88950000D01*
X115317500Y-88950000D02*
X111750000Y-88950000D01*
X111750000Y-88950000D02*
X110520000Y-90180000D01*
X110520000Y-90180000D02*
X110520000Y-91300000D01*
%TO.N,RESET*%
X117157500Y-89650000D02*
X120235000Y-86572500D01*
X113060000Y-91300000D02*
X114710000Y-89650000D01*
X114710000Y-89650000D02*
X117157500Y-89650000D01*
%TO.N,CS*%
X122775000Y-86665000D02*
X122775000Y-86572500D01*
D36*
X118140000Y-91207500D02*
X118140000Y-91300000D01*
D35*
X118140000Y-91300000D02*
X122775000Y-86665000D01*
X118140000Y-91300000D02*
X118700000Y-91300000D01*
%TO.N,SCL*%
X134920000Y-103200000D02*
X134920000Y-88557500D01*
X134920000Y-88557500D02*
X132935000Y-86572500D01*
%TO.N,SDA*%
X132380000Y-91097500D02*
X127855000Y-86572500D01*
X132380000Y-103200000D02*
X132380000Y-91097500D01*
%TO.N,BTT*%
X135887500Y-71800000D02*
X136901000Y-71800000D01*
X135887500Y-71800000D02*
X135950000Y-71737500D01*
X135950000Y-67050000D02*
X133340000Y-64440000D01*
X135950000Y-71737500D02*
X135950000Y-67050000D01*
X133340000Y-64440000D02*
X128582500Y-64440000D01*
X136901000Y-71800000D02*
X148951000Y-83850000D01*
X148951000Y-83850000D02*
X152162500Y-83850000D01*
X128582500Y-64440000D02*
X125315000Y-61172500D01*
X152162500Y-83850000D02*
X155037500Y-86725000D01*
%TO.N,3V3*%
X148934888Y-110894888D02*
X147694888Y-110894888D01*
X125034888Y-110894888D02*
X105440000Y-91300000D01*
X148934888Y-110894888D02*
X125034888Y-110894888D01*
D34*
X150150000Y-101050000D02*
X150150000Y-107350000D01*
D35*
X147694888Y-110894888D02*
X140000000Y-103200000D01*
%TO.N,Net-(R2-Pad2)*%
X149400000Y-82250000D02*
X149565500Y-82415500D01*
X154847000Y-82415500D02*
X155037500Y-82225000D01*
X149565500Y-82415500D02*
X154847000Y-82415500D01*
%TO.N,unconnected-(U5-D12-Pad27)*%
X131072500Y-86572500D02*
X130395000Y-86572500D01*
%TD*%
%TA.AperFunction,Conductor*%
%TO.N,GNDPWR*%
G36*
X156982519Y-57714925D02*
G01*
X157043997Y-57756003D01*
X157085075Y-57817481D01*
X157099500Y-57890000D01*
X157099500Y-115410000D01*
X157085075Y-115482519D01*
X157043997Y-115543997D01*
X156982519Y-115585075D01*
X156910000Y-115599500D01*
X96090000Y-115599500D01*
X96017481Y-115585075D01*
X95956003Y-115543997D01*
X95914925Y-115482519D01*
X95900500Y-115410000D01*
X95900500Y-114773344D01*
X148122116Y-114773344D01*
X148206257Y-114824907D01*
X148438932Y-114921284D01*
X148683817Y-114980076D01*
X148934888Y-114999835D01*
X149185958Y-114980076D01*
X149430846Y-114921284D01*
X149663518Y-114824907D01*
X149747658Y-114773345D01*
X148934888Y-113960573D01*
X148122116Y-114773344D01*
X95900500Y-114773344D01*
X95900500Y-113394887D01*
X147329940Y-113394887D01*
X147349699Y-113645958D01*
X147408491Y-113890843D01*
X147504868Y-114123518D01*
X147556430Y-114207658D01*
X148369201Y-113394888D01*
X149500573Y-113394888D01*
X150313345Y-114207658D01*
X150364907Y-114123518D01*
X150461284Y-113890846D01*
X150520076Y-113645958D01*
X150539835Y-113394887D01*
X150520076Y-113143817D01*
X150461284Y-112898932D01*
X150364907Y-112666257D01*
X150313344Y-112582116D01*
X149500573Y-113394888D01*
X148369201Y-113394888D01*
X147556429Y-112582116D01*
X147504868Y-112666258D01*
X147408491Y-112898932D01*
X147349699Y-113143817D01*
X147329940Y-113394887D01*
X95900500Y-113394887D01*
X95900500Y-92194930D01*
X101250000Y-92194930D01*
X101265122Y-92329140D01*
X101324663Y-92499301D01*
X101420577Y-92651948D01*
X101548051Y-92779422D01*
X101700698Y-92875336D01*
X101870859Y-92934877D01*
X102005070Y-92950000D01*
X102499999Y-92950000D01*
X102500000Y-92949999D01*
X102500000Y-91700001D01*
X102499999Y-91700000D01*
X101250001Y-91700000D01*
X101250000Y-91700001D01*
X101250000Y-92194930D01*
X95900500Y-92194930D01*
X95900500Y-90899999D01*
X101250000Y-90899999D01*
X101250001Y-90900000D01*
X102499999Y-90900000D01*
X102500000Y-90899999D01*
X102500000Y-89650001D01*
X102499999Y-89650000D01*
X102005070Y-89650000D01*
X101870859Y-89665122D01*
X101700698Y-89724663D01*
X101548051Y-89820577D01*
X101420577Y-89948051D01*
X101324663Y-90100698D01*
X101265122Y-90270859D01*
X101250000Y-90405070D01*
X101250000Y-90899999D01*
X95900500Y-90899999D01*
X95900500Y-86170268D01*
X97170788Y-86170268D01*
X97200414Y-86439517D01*
X97268928Y-86701589D01*
X97329192Y-86843400D01*
X97374870Y-86950890D01*
X97422416Y-87028796D01*
X97515980Y-87182108D01*
X97605255Y-87289384D01*
X97689255Y-87390320D01*
X97890998Y-87571082D01*
X98116910Y-87720544D01*
X98362176Y-87835520D01*
X98621569Y-87913560D01*
X98889561Y-87953000D01*
X99092631Y-87953000D01*
X99092637Y-87953000D01*
X99266223Y-87940294D01*
X99295156Y-87938177D01*
X99559553Y-87879280D01*
X99812558Y-87782514D01*
X100048777Y-87649941D01*
X100263177Y-87484388D01*
X100451186Y-87289381D01*
X100608799Y-87069079D01*
X100732656Y-86828175D01*
X100732657Y-86828170D01*
X100732864Y-86827769D01*
X100780363Y-86768602D01*
X100847265Y-86732811D01*
X100922845Y-86726134D01*
X100994986Y-86749640D01*
X101052123Y-86799562D01*
X101085096Y-86867897D01*
X101125841Y-87028796D01*
X101150459Y-87084920D01*
X101219076Y-87241349D01*
X101219078Y-87241352D01*
X101346020Y-87435653D01*
X101503215Y-87606413D01*
X101686373Y-87748970D01*
X101890496Y-87859436D01*
X101980622Y-87890376D01*
X102110019Y-87934798D01*
X102185335Y-87947366D01*
X102338949Y-87973000D01*
X102338951Y-87973000D01*
X102571049Y-87973000D01*
X102571051Y-87973000D01*
X102690902Y-87953000D01*
X102799981Y-87934798D01*
X103019503Y-87859436D01*
X103223626Y-87748970D01*
X103406784Y-87606413D01*
X103563979Y-87435653D01*
X103566355Y-87432015D01*
X103618744Y-87378753D01*
X103687646Y-87349878D01*
X103762354Y-87349878D01*
X103831256Y-87378753D01*
X103883644Y-87432015D01*
X103886021Y-87435654D01*
X104043215Y-87606413D01*
X104226373Y-87748970D01*
X104430496Y-87859436D01*
X104520622Y-87890376D01*
X104650019Y-87934798D01*
X104725335Y-87947366D01*
X104878949Y-87973000D01*
X104878951Y-87973000D01*
X105111049Y-87973000D01*
X105111051Y-87973000D01*
X105230902Y-87953000D01*
X105339981Y-87934798D01*
X105559503Y-87859436D01*
X105763626Y-87748970D01*
X105946784Y-87606413D01*
X106103979Y-87435653D01*
X106106355Y-87432015D01*
X106158744Y-87378753D01*
X106227646Y-87349878D01*
X106302354Y-87349878D01*
X106371256Y-87378753D01*
X106423644Y-87432015D01*
X106426021Y-87435654D01*
X106583215Y-87606413D01*
X106766373Y-87748970D01*
X106970496Y-87859436D01*
X107060622Y-87890376D01*
X107190019Y-87934798D01*
X107265335Y-87947366D01*
X107418949Y-87973000D01*
X107418951Y-87973000D01*
X107651049Y-87973000D01*
X107651051Y-87973000D01*
X107770902Y-87953000D01*
X107879981Y-87934798D01*
X108099503Y-87859436D01*
X108303626Y-87748970D01*
X108486784Y-87606413D01*
X108643979Y-87435653D01*
X108646355Y-87432015D01*
X108698744Y-87378753D01*
X108767646Y-87349878D01*
X108842354Y-87349878D01*
X108911256Y-87378753D01*
X108963644Y-87432015D01*
X108966021Y-87435654D01*
X109123215Y-87606413D01*
X109306373Y-87748970D01*
X109510496Y-87859436D01*
X109600622Y-87890376D01*
X109730019Y-87934798D01*
X109805335Y-87947366D01*
X109958949Y-87973000D01*
X110013705Y-87973000D01*
X110086224Y-87987425D01*
X110147702Y-88028503D01*
X110188780Y-88089982D01*
X110203205Y-88162500D01*
X110188780Y-88235019D01*
X110147702Y-88296497D01*
X108419217Y-90024981D01*
X108365307Y-90062729D01*
X108301738Y-90079763D01*
X108236176Y-90074028D01*
X108211960Y-90067540D01*
X108197977Y-90063793D01*
X108180440Y-90062258D01*
X107980000Y-90044722D01*
X107762022Y-90063793D01*
X107550667Y-90120425D01*
X107352363Y-90212896D01*
X107173125Y-90338400D01*
X107018400Y-90493125D01*
X106892895Y-90672364D01*
X106881744Y-90696279D01*
X106840042Y-90754029D01*
X106779964Y-90792303D01*
X106710000Y-90805691D01*
X106640036Y-90792303D01*
X106579958Y-90754029D01*
X106538256Y-90696279D01*
X106527104Y-90672364D01*
X106401597Y-90493122D01*
X106246878Y-90338402D01*
X106067637Y-90212896D01*
X105869331Y-90120425D01*
X105657977Y-90063793D01*
X105440000Y-90044722D01*
X105222022Y-90063793D01*
X105010667Y-90120425D01*
X104812364Y-90212895D01*
X104778124Y-90236871D01*
X104714816Y-90265625D01*
X104645399Y-90269610D01*
X104579217Y-90248287D01*
X104525181Y-90204529D01*
X104490566Y-90144225D01*
X104475335Y-90100698D01*
X104379422Y-89948051D01*
X104251948Y-89820577D01*
X104099301Y-89724663D01*
X103929140Y-89665122D01*
X103794930Y-89650000D01*
X103300001Y-89650000D01*
X103300000Y-89650001D01*
X103300000Y-92949999D01*
X103300001Y-92950000D01*
X103794930Y-92950000D01*
X103929140Y-92934877D01*
X104099301Y-92875336D01*
X104251948Y-92779422D01*
X104379422Y-92651948D01*
X104475335Y-92499301D01*
X104490566Y-92455775D01*
X104525181Y-92395471D01*
X104579218Y-92351712D01*
X104645400Y-92330390D01*
X104714818Y-92334375D01*
X104778126Y-92363130D01*
X104812361Y-92387102D01*
X105010670Y-92479575D01*
X105222023Y-92536207D01*
X105440000Y-92555277D01*
X105657977Y-92536207D01*
X105696175Y-92525971D01*
X105761733Y-92520235D01*
X105825305Y-92537268D01*
X105879217Y-92575017D01*
X124580812Y-111276612D01*
X124597153Y-111295246D01*
X124613379Y-111316392D01*
X124613382Y-111316394D01*
X124736838Y-111411126D01*
X124880606Y-111470676D01*
X124996150Y-111485888D01*
X124996156Y-111485888D01*
X125008462Y-111487508D01*
X125008468Y-111487509D01*
X125034888Y-111490987D01*
X125061308Y-111487509D01*
X125086041Y-111485888D01*
X147544889Y-111485888D01*
X147617408Y-111500313D01*
X147678886Y-111541391D01*
X147719964Y-111602869D01*
X147734389Y-111675388D01*
X147734389Y-111726408D01*
X147749241Y-111820191D01*
X147806837Y-111933229D01*
X147896546Y-112022938D01*
X148009583Y-112080534D01*
X148031323Y-112083977D01*
X148103369Y-112095388D01*
X148122577Y-112095387D01*
X148195095Y-112109811D01*
X148256576Y-112150890D01*
X148934888Y-112829201D01*
X149613200Y-112150890D01*
X149674679Y-112109812D01*
X149747196Y-112095387D01*
X149766406Y-112095387D01*
X149766408Y-112095387D01*
X149828929Y-112085485D01*
X149860192Y-112080534D01*
X149973230Y-112022938D01*
X150062938Y-111933230D01*
X150120534Y-111820192D01*
X150120534Y-111820189D01*
X150130000Y-111801612D01*
X150139821Y-111773294D01*
X150182089Y-111721791D01*
X150239570Y-111688101D01*
X150305159Y-111676388D01*
X152609486Y-111676388D01*
X152609504Y-111676387D01*
X152643163Y-111676387D01*
X152643166Y-111676387D01*
X152675855Y-111668925D01*
X152696781Y-111665369D01*
X152730112Y-111661615D01*
X152761767Y-111650537D01*
X152782162Y-111644662D01*
X152814858Y-111637200D01*
X152845083Y-111622644D01*
X152864677Y-111614528D01*
X152896338Y-111603450D01*
X152924730Y-111585609D01*
X152943321Y-111575335D01*
X152973526Y-111560790D01*
X152999740Y-111539883D01*
X153017066Y-111527590D01*
X153045452Y-111509755D01*
X153169979Y-111385228D01*
X153399204Y-111156002D01*
X153460682Y-111114925D01*
X153533201Y-111100500D01*
X153790694Y-111100500D01*
X153827572Y-111097598D01*
X153985395Y-111051745D01*
X153985395Y-111051744D01*
X153985398Y-111051744D01*
X154126865Y-110968081D01*
X154243081Y-110851865D01*
X154326744Y-110710398D01*
X154326745Y-110710395D01*
X154372598Y-110552572D01*
X154375500Y-110515694D01*
X154375500Y-109884306D01*
X154372598Y-109847427D01*
X154326745Y-109689604D01*
X154243081Y-109548135D01*
X154126864Y-109431918D01*
X153985395Y-109348254D01*
X153827572Y-109302401D01*
X153790694Y-109299500D01*
X153283202Y-109299500D01*
X153210684Y-109285075D01*
X153149205Y-109243997D01*
X152496381Y-108591174D01*
X152461532Y-108543207D01*
X152443211Y-108486819D01*
X152443211Y-108427533D01*
X152450500Y-108381519D01*
X152450499Y-106318482D01*
X152435646Y-106224696D01*
X152378050Y-106111658D01*
X152288342Y-106021950D01*
X152288341Y-106021949D01*
X152175304Y-105964353D01*
X152081519Y-105949500D01*
X151121000Y-105949500D01*
X151048481Y-105935075D01*
X150987003Y-105893997D01*
X150945925Y-105832519D01*
X150931500Y-105760000D01*
X150931500Y-102599567D01*
X150944087Y-102531656D01*
X150980174Y-102472767D01*
X151034967Y-102430722D01*
X151138342Y-102378050D01*
X151228050Y-102288342D01*
X151285646Y-102175304D01*
X151300500Y-102081519D01*
X151300499Y-100018482D01*
X151285646Y-99924696D01*
X151228050Y-99811658D01*
X151138342Y-99721950D01*
X151138341Y-99721949D01*
X151025304Y-99664353D01*
X150931519Y-99649500D01*
X150139074Y-99649500D01*
X150061635Y-99632955D01*
X149997718Y-99586209D01*
X149958484Y-99517425D01*
X149950785Y-99438614D01*
X149975963Y-99363537D01*
X150051744Y-99235398D01*
X150051745Y-99235395D01*
X150097598Y-99077572D01*
X150100500Y-99040694D01*
X150100500Y-97959306D01*
X150097598Y-97922427D01*
X150051745Y-97764604D01*
X149968081Y-97623135D01*
X149851863Y-97506917D01*
X149774538Y-97461188D01*
X149724988Y-97418870D01*
X149692703Y-97362268D01*
X149681500Y-97298077D01*
X149681500Y-95728456D01*
X150587228Y-95728456D01*
X150671369Y-95780019D01*
X150904044Y-95876396D01*
X151148929Y-95935188D01*
X151400000Y-95954947D01*
X151651070Y-95935188D01*
X151895958Y-95876396D01*
X152128630Y-95780019D01*
X152212770Y-95728457D01*
X151400000Y-94915685D01*
X150587228Y-95728456D01*
X149681500Y-95728456D01*
X149681500Y-95720271D01*
X149693212Y-95654683D01*
X149726902Y-95597202D01*
X149778404Y-95554934D01*
X149806721Y-95545114D01*
X149825302Y-95535646D01*
X149825304Y-95535646D01*
X149938342Y-95478050D01*
X150028050Y-95388342D01*
X150085646Y-95275304D01*
X150100500Y-95181519D01*
X150100499Y-95162308D01*
X150114923Y-95089791D01*
X150156002Y-95028310D01*
X150834313Y-94350000D01*
X151965685Y-94350000D01*
X152778457Y-95162770D01*
X152830019Y-95078630D01*
X152926396Y-94845958D01*
X152985188Y-94601070D01*
X153004947Y-94350000D01*
X152985188Y-94098929D01*
X152926396Y-93854044D01*
X152830019Y-93621369D01*
X152778456Y-93537228D01*
X151965685Y-94350000D01*
X150834313Y-94350000D01*
X150156002Y-93671687D01*
X150114924Y-93610208D01*
X150100499Y-93537690D01*
X150100499Y-93518480D01*
X150085646Y-93424696D01*
X150028050Y-93311658D01*
X149938341Y-93221949D01*
X149825304Y-93164353D01*
X149731519Y-93149500D01*
X149680500Y-93149500D01*
X149607981Y-93135075D01*
X149546503Y-93093997D01*
X149505425Y-93032519D01*
X149493296Y-92971541D01*
X150587228Y-92971541D01*
X151400000Y-93784313D01*
X152212770Y-92971542D01*
X152128630Y-92919980D01*
X151895955Y-92823603D01*
X151651070Y-92764811D01*
X151400000Y-92745052D01*
X151148929Y-92764811D01*
X150904044Y-92823603D01*
X150671370Y-92919980D01*
X150587228Y-92971541D01*
X149493296Y-92971541D01*
X149491000Y-92960000D01*
X149491000Y-86327500D01*
X149505425Y-86254981D01*
X149546503Y-86193503D01*
X149607981Y-86152425D01*
X149680500Y-86138000D01*
X150090694Y-86138000D01*
X150127572Y-86135098D01*
X150285395Y-86089245D01*
X150285395Y-86089244D01*
X150285398Y-86089244D01*
X150426865Y-86005581D01*
X150543081Y-85889365D01*
X150626744Y-85747898D01*
X150632361Y-85728565D01*
X150672598Y-85590072D01*
X150675500Y-85553194D01*
X150675500Y-84796806D01*
X150672598Y-84759930D01*
X150650355Y-84683368D01*
X150643564Y-84613852D01*
X150662418Y-84546597D01*
X150704356Y-84490741D01*
X150763680Y-84453872D01*
X150832331Y-84441000D01*
X151839206Y-84441000D01*
X151911725Y-84455425D01*
X151973203Y-84496503D01*
X153742070Y-86265370D01*
X153779818Y-86319280D01*
X153796852Y-86382849D01*
X153791117Y-86448411D01*
X153776580Y-86502666D01*
X153757712Y-86718320D01*
X153733736Y-86795345D01*
X153679895Y-86855418D01*
X153605945Y-86887653D01*
X153525287Y-86886208D01*
X153452541Y-86851346D01*
X153343567Y-86766528D01*
X153343566Y-86766527D01*
X153343563Y-86766525D01*
X153132154Y-86652116D01*
X152904798Y-86574065D01*
X152667694Y-86534500D01*
X152667692Y-86534500D01*
X152427308Y-86534500D01*
X152427306Y-86534500D01*
X152190201Y-86574065D01*
X151962845Y-86652116D01*
X151751435Y-86766525D01*
X151561736Y-86914175D01*
X151398928Y-87091032D01*
X151267451Y-87292271D01*
X151170890Y-87512407D01*
X151161876Y-87548005D01*
X151122399Y-87703900D01*
X151111880Y-87745438D01*
X151093071Y-87972431D01*
X151092029Y-87985000D01*
X151111880Y-88224563D01*
X151129296Y-88293337D01*
X151170890Y-88457592D01*
X151231707Y-88596240D01*
X151267451Y-88677728D01*
X151398929Y-88878969D01*
X151561736Y-89055825D01*
X151693166Y-89158121D01*
X151751435Y-89203474D01*
X151962845Y-89317883D01*
X152190201Y-89395934D01*
X152427306Y-89435500D01*
X152427308Y-89435500D01*
X152667692Y-89435500D01*
X152667694Y-89435500D01*
X152904798Y-89395934D01*
X153132154Y-89317883D01*
X153343564Y-89203474D01*
X153343567Y-89203472D01*
X153533264Y-89055825D01*
X153696071Y-88878969D01*
X153827549Y-88677728D01*
X153924110Y-88457591D01*
X153983120Y-88224563D01*
X154002971Y-87985000D01*
X153998742Y-87933969D01*
X154006265Y-87863282D01*
X154039309Y-87800336D01*
X154093222Y-87753996D01*
X154160418Y-87730784D01*
X154231438Y-87733967D01*
X154296288Y-87763096D01*
X154397310Y-87833833D01*
X154397313Y-87833834D01*
X154397314Y-87833835D01*
X154599587Y-87928156D01*
X154815166Y-87985920D01*
X155037500Y-88005372D01*
X155259834Y-87985920D01*
X155475413Y-87928156D01*
X155677686Y-87833835D01*
X155860507Y-87705822D01*
X156018322Y-87548007D01*
X156146335Y-87365186D01*
X156240656Y-87162913D01*
X156298420Y-86947334D01*
X156317872Y-86725000D01*
X156298420Y-86502666D01*
X156240656Y-86287087D01*
X156146335Y-86084814D01*
X156146334Y-86084813D01*
X156146333Y-86084810D01*
X156018323Y-85901994D01*
X155860505Y-85744176D01*
X155677689Y-85616166D01*
X155604781Y-85582169D01*
X155475413Y-85521844D01*
X155259834Y-85464080D01*
X155259823Y-85464079D01*
X155037500Y-85444627D01*
X154815166Y-85464079D01*
X154760911Y-85478617D01*
X154695349Y-85484352D01*
X154631780Y-85467318D01*
X154577870Y-85429570D01*
X152616571Y-83468271D01*
X152600228Y-83449634D01*
X152584007Y-83428495D01*
X152583565Y-83428156D01*
X152476942Y-83346340D01*
X152426163Y-83287147D01*
X152403524Y-83212515D01*
X152412860Y-83135087D01*
X152452589Y-83067975D01*
X152515983Y-83022548D01*
X152592303Y-83006500D01*
X153936678Y-83006500D01*
X154009197Y-83020925D01*
X154070675Y-83062004D01*
X154214491Y-83205821D01*
X154397310Y-83333833D01*
X154397313Y-83333834D01*
X154397314Y-83333835D01*
X154599587Y-83428156D01*
X154815166Y-83485920D01*
X155018046Y-83503670D01*
X155037499Y-83505372D01*
X155037499Y-83505371D01*
X155037500Y-83505372D01*
X155259834Y-83485920D01*
X155475413Y-83428156D01*
X155677686Y-83333835D01*
X155860507Y-83205822D01*
X156018322Y-83048007D01*
X156146335Y-82865186D01*
X156240656Y-82662913D01*
X156298420Y-82447334D01*
X156317872Y-82225000D01*
X156298420Y-82002666D01*
X156240656Y-81787087D01*
X156146335Y-81584814D01*
X156146334Y-81584813D01*
X156146333Y-81584810D01*
X156018323Y-81401994D01*
X155860505Y-81244176D01*
X155677689Y-81116166D01*
X155613209Y-81086099D01*
X155475413Y-81021844D01*
X155259834Y-80964080D01*
X155259833Y-80964079D01*
X155037500Y-80944627D01*
X154815165Y-80964080D01*
X154599590Y-81021843D01*
X154599589Y-81021843D01*
X154599587Y-81021844D01*
X154498450Y-81069004D01*
X154397311Y-81116166D01*
X154297166Y-81186288D01*
X154232315Y-81215417D01*
X154161295Y-81218599D01*
X154094099Y-81195386D01*
X154040186Y-81149045D01*
X154007144Y-81086099D01*
X153999622Y-81015415D01*
X154002971Y-80975000D01*
X153983120Y-80735437D01*
X153924110Y-80502409D01*
X153827549Y-80282272D01*
X153696071Y-80081031D01*
X153533264Y-79904175D01*
X153430966Y-79824553D01*
X153343564Y-79756525D01*
X153132154Y-79642116D01*
X152904798Y-79564065D01*
X152667694Y-79524500D01*
X152667692Y-79524500D01*
X152427308Y-79524500D01*
X152427306Y-79524500D01*
X152190201Y-79564065D01*
X151962845Y-79642116D01*
X151751435Y-79756525D01*
X151561736Y-79904175D01*
X151398928Y-80081032D01*
X151267451Y-80282271D01*
X151170890Y-80502407D01*
X151131549Y-80657761D01*
X151111880Y-80735437D01*
X151092029Y-80975000D01*
X151111880Y-81214563D01*
X151163756Y-81419418D01*
X151170891Y-81447594D01*
X151219705Y-81558879D01*
X151235640Y-81631867D01*
X151222127Y-81705342D01*
X151181266Y-81767884D01*
X151119408Y-81809774D01*
X151046166Y-81824500D01*
X150811848Y-81824500D01*
X150732963Y-81807300D01*
X150668398Y-81758824D01*
X150629873Y-81687870D01*
X150626745Y-81677104D01*
X150543081Y-81535635D01*
X150426864Y-81419418D01*
X150285395Y-81335754D01*
X150127572Y-81289901D01*
X150090694Y-81287000D01*
X148709306Y-81287000D01*
X148672427Y-81289901D01*
X148514604Y-81335754D01*
X148373135Y-81419418D01*
X148256918Y-81535635D01*
X148173254Y-81677104D01*
X148136728Y-81802827D01*
X148100003Y-81871665D01*
X148038655Y-81919872D01*
X147963085Y-81939275D01*
X147886102Y-81926585D01*
X147820756Y-81883955D01*
X143636800Y-77699999D01*
X148474357Y-77699999D01*
X148494892Y-77947825D01*
X148555935Y-78188877D01*
X148555937Y-78188881D01*
X148655827Y-78416607D01*
X148791836Y-78624785D01*
X148960256Y-78807738D01*
X149111305Y-78925304D01*
X149156494Y-78960476D01*
X149375189Y-79078828D01*
X149397788Y-79086586D01*
X149610386Y-79159571D01*
X149855665Y-79200500D01*
X150104332Y-79200500D01*
X150104335Y-79200500D01*
X150349614Y-79159571D01*
X150584810Y-79078828D01*
X150803509Y-78960474D01*
X150999744Y-78807738D01*
X151168164Y-78624785D01*
X151304173Y-78416607D01*
X151404063Y-78188881D01*
X151465108Y-77947821D01*
X151485643Y-77700000D01*
X151465108Y-77452179D01*
X151465107Y-77452174D01*
X151464852Y-77451166D01*
X151459934Y-77386398D01*
X151477177Y-77323773D01*
X151514553Y-77270653D01*
X152913618Y-75871588D01*
X152946791Y-75845134D01*
X152985020Y-75826724D01*
X153091226Y-75789562D01*
X153240340Y-75695867D01*
X153330207Y-75605999D01*
X153391682Y-75564924D01*
X153464201Y-75550499D01*
X153481520Y-75550499D01*
X153544042Y-75540596D01*
X153575304Y-75535646D01*
X153688342Y-75478050D01*
X153778050Y-75388342D01*
X153835646Y-75275304D01*
X153850500Y-75181519D01*
X153850499Y-74718482D01*
X153850499Y-74718479D01*
X153840389Y-74654642D01*
X153840389Y-74595355D01*
X153850500Y-74531519D01*
X153850499Y-74068482D01*
X153850499Y-74068479D01*
X153840389Y-74004642D01*
X153840389Y-73945355D01*
X153850500Y-73881519D01*
X153850499Y-73418482D01*
X153850499Y-73418479D01*
X153840389Y-73354642D01*
X153840389Y-73295355D01*
X153850500Y-73231519D01*
X153850499Y-72768482D01*
X153847626Y-72750344D01*
X153835646Y-72674696D01*
X153778050Y-72561658D01*
X153688341Y-72471949D01*
X153575304Y-72414353D01*
X153481519Y-72399500D01*
X152018480Y-72399500D01*
X151924696Y-72414353D01*
X151811658Y-72471949D01*
X151721949Y-72561658D01*
X151664353Y-72674695D01*
X151649500Y-72768480D01*
X151649500Y-73231516D01*
X151659611Y-73295360D01*
X151659610Y-73354641D01*
X151649500Y-73418478D01*
X151649500Y-73881516D01*
X151659611Y-73945360D01*
X151659610Y-74004641D01*
X151649500Y-74068478D01*
X151649500Y-74531516D01*
X151659611Y-74595360D01*
X151659610Y-74654641D01*
X151649500Y-74718479D01*
X151649500Y-74846797D01*
X151635075Y-74919316D01*
X151593997Y-74980794D01*
X150405517Y-76169274D01*
X150357086Y-76204359D01*
X150300133Y-76222604D01*
X150240331Y-76222193D01*
X150133454Y-76204359D01*
X150104335Y-76199500D01*
X149855665Y-76199500D01*
X149610386Y-76240429D01*
X149610384Y-76240429D01*
X149610382Y-76240430D01*
X149375189Y-76321171D01*
X149156494Y-76439523D01*
X148960256Y-76592262D01*
X148791833Y-76775218D01*
X148655829Y-76983389D01*
X148555935Y-77211122D01*
X148494892Y-77452174D01*
X148474357Y-77699999D01*
X143636800Y-77699999D01*
X137355071Y-71418271D01*
X137338728Y-71399634D01*
X137322507Y-71378495D01*
X137199049Y-71283761D01*
X137127165Y-71253986D01*
X137055281Y-71224210D01*
X137007900Y-71217973D01*
X136939032Y-71194864D01*
X136883918Y-71147542D01*
X136850657Y-71082963D01*
X136847598Y-71072434D01*
X136847598Y-71072431D01*
X136801744Y-70914602D01*
X136718081Y-70773135D01*
X136601865Y-70656919D01*
X136596503Y-70651557D01*
X136555425Y-70590079D01*
X136541000Y-70517560D01*
X136541000Y-68439999D01*
X136543296Y-68428456D01*
X137637228Y-68428456D01*
X137721369Y-68480019D01*
X137954044Y-68576396D01*
X138198929Y-68635188D01*
X138450000Y-68654947D01*
X138701070Y-68635188D01*
X138945958Y-68576396D01*
X139178630Y-68480019D01*
X139262770Y-68428457D01*
X138450000Y-67615685D01*
X137637228Y-68428456D01*
X136543296Y-68428456D01*
X136555425Y-68367480D01*
X136596503Y-68306002D01*
X136657981Y-68264924D01*
X136730500Y-68250499D01*
X136781520Y-68250499D01*
X136844041Y-68240597D01*
X136875304Y-68235646D01*
X136988342Y-68178050D01*
X137078050Y-68088342D01*
X137135646Y-67975304D01*
X137150500Y-67881519D01*
X137150499Y-67862308D01*
X137164923Y-67789791D01*
X137206002Y-67728310D01*
X137884313Y-67050000D01*
X137884311Y-67049998D01*
X139015685Y-67049998D01*
X139828457Y-67862770D01*
X139880019Y-67778630D01*
X139976396Y-67545958D01*
X140035188Y-67301070D01*
X140054947Y-67049999D01*
X140035188Y-66798929D01*
X139976396Y-66554044D01*
X139880019Y-66321369D01*
X139828456Y-66237228D01*
X139015685Y-67049998D01*
X137884311Y-67049998D01*
X137206002Y-66371687D01*
X137164924Y-66310208D01*
X137150499Y-66237690D01*
X137150499Y-66218480D01*
X137135646Y-66124696D01*
X137078050Y-66011658D01*
X136988341Y-65921949D01*
X136875304Y-65864353D01*
X136781519Y-65849500D01*
X135663794Y-65849500D01*
X135591275Y-65835075D01*
X135529797Y-65793997D01*
X135407341Y-65671541D01*
X137637228Y-65671541D01*
X138450000Y-66484313D01*
X139262770Y-65671542D01*
X139178630Y-65619980D01*
X138945955Y-65523603D01*
X138701070Y-65464811D01*
X138450000Y-65445052D01*
X138198929Y-65464811D01*
X137954044Y-65523603D01*
X137721370Y-65619980D01*
X137637228Y-65671541D01*
X135407341Y-65671541D01*
X133794071Y-64058271D01*
X133777728Y-64039634D01*
X133761507Y-64018495D01*
X133638049Y-63923761D01*
X133566165Y-63893986D01*
X133494282Y-63864210D01*
X133357947Y-63846262D01*
X133340000Y-63843900D01*
X133339999Y-63843900D01*
X133313572Y-63847379D01*
X133288839Y-63849000D01*
X128905794Y-63849000D01*
X128833275Y-63834575D01*
X128771797Y-63793497D01*
X127871644Y-62893344D01*
X127827450Y-62823832D01*
X127816924Y-62742137D01*
X127831320Y-62697200D01*
X134515984Y-62697200D01*
X134572475Y-62735716D01*
X134815545Y-62852771D01*
X135073341Y-62932292D01*
X135340106Y-62972500D01*
X135609894Y-62972500D01*
X135876658Y-62932292D01*
X136134457Y-62852770D01*
X136377522Y-62735718D01*
X136600425Y-62583744D01*
X136623761Y-62562091D01*
X136689176Y-62522451D01*
X136764932Y-62511900D01*
X136838689Y-62532157D01*
X136889694Y-62558146D01*
X136914604Y-62562091D01*
X136983481Y-62573000D01*
X139046518Y-62572999D01*
X139046519Y-62572999D01*
X139115394Y-62562091D01*
X139140304Y-62558146D01*
X139253342Y-62500550D01*
X139343050Y-62410842D01*
X139400646Y-62297804D01*
X139415500Y-62204019D01*
X139415500Y-61660268D01*
X144120788Y-61660268D01*
X144150414Y-61929517D01*
X144218928Y-62191589D01*
X144225228Y-62206413D01*
X144324870Y-62440890D01*
X144396431Y-62558146D01*
X144465980Y-62672108D01*
X144616328Y-62852771D01*
X144639255Y-62880320D01*
X144840998Y-63061082D01*
X145066910Y-63210544D01*
X145312176Y-63325520D01*
X145571569Y-63403560D01*
X145839561Y-63443000D01*
X146042631Y-63443000D01*
X146042637Y-63443000D01*
X146216223Y-63430294D01*
X146245156Y-63428177D01*
X146509553Y-63369280D01*
X146762558Y-63272514D01*
X146998777Y-63139941D01*
X147213177Y-62974388D01*
X147401186Y-62779381D01*
X147558799Y-62559079D01*
X147682656Y-62318175D01*
X147770118Y-62061805D01*
X147819319Y-61795433D01*
X147829212Y-61524735D01*
X147799586Y-61255482D01*
X147731072Y-60993412D01*
X147625130Y-60744110D01*
X147484018Y-60512890D01*
X147394743Y-60405615D01*
X147310746Y-60304681D01*
X147282064Y-60278982D01*
X147109002Y-60123918D01*
X146883090Y-59974456D01*
X146637824Y-59859480D01*
X146378431Y-59781440D01*
X146110439Y-59742000D01*
X145907369Y-59742000D01*
X145907363Y-59742000D01*
X145704844Y-59756822D01*
X145440448Y-59815719D01*
X145187441Y-59912486D01*
X144951224Y-60045058D01*
X144736819Y-60210614D01*
X144548816Y-60405615D01*
X144391198Y-60625924D01*
X144267344Y-60866823D01*
X144179882Y-61123192D01*
X144130681Y-61389565D01*
X144120788Y-61660268D01*
X139415500Y-61660268D01*
X139415499Y-60140982D01*
X139412796Y-60123917D01*
X139400646Y-60047196D01*
X139343050Y-59934158D01*
X139253341Y-59844449D01*
X139140304Y-59786853D01*
X139046519Y-59772000D01*
X136983480Y-59772000D01*
X136889695Y-59786853D01*
X136838686Y-59812844D01*
X136764931Y-59833099D01*
X136689177Y-59822548D01*
X136623764Y-59782910D01*
X136600429Y-59761258D01*
X136377522Y-59609281D01*
X136134457Y-59492229D01*
X135876658Y-59412707D01*
X135609894Y-59372500D01*
X135340106Y-59372500D01*
X135073341Y-59412707D01*
X134815545Y-59492228D01*
X134572475Y-59609284D01*
X134515984Y-59647799D01*
X135906688Y-61038503D01*
X135947766Y-61099981D01*
X135962191Y-61172500D01*
X135947766Y-61245019D01*
X135906688Y-61306497D01*
X134515984Y-62697200D01*
X127831320Y-62697200D01*
X127842054Y-62663694D01*
X127898092Y-62603323D01*
X127974445Y-62572433D01*
X128199981Y-62534798D01*
X128419503Y-62459436D01*
X128623626Y-62348970D01*
X128806784Y-62206413D01*
X128963979Y-62035653D01*
X128966355Y-62032015D01*
X129018744Y-61978753D01*
X129087646Y-61949878D01*
X129162354Y-61949878D01*
X129231256Y-61978753D01*
X129283644Y-62032015D01*
X129286021Y-62035654D01*
X129443215Y-62206413D01*
X129626373Y-62348970D01*
X129830496Y-62459436D01*
X129940258Y-62497117D01*
X130050019Y-62534798D01*
X130126329Y-62547532D01*
X130278949Y-62573000D01*
X130278951Y-62573000D01*
X130511049Y-62573000D01*
X130511051Y-62573000D01*
X130625514Y-62553899D01*
X130739981Y-62534798D01*
X130959503Y-62459436D01*
X131163626Y-62348970D01*
X131346784Y-62206413D01*
X131503979Y-62035653D01*
X131506355Y-62032015D01*
X131558744Y-61978753D01*
X131627646Y-61949878D01*
X131702354Y-61949878D01*
X131771256Y-61978753D01*
X131823644Y-62032015D01*
X131826021Y-62035654D01*
X131983215Y-62206413D01*
X132166373Y-62348970D01*
X132370496Y-62459436D01*
X132480258Y-62497117D01*
X132590019Y-62534798D01*
X132666329Y-62547532D01*
X132818949Y-62573000D01*
X132818951Y-62573000D01*
X133051049Y-62573000D01*
X133051051Y-62573000D01*
X133165514Y-62553899D01*
X133279981Y-62534798D01*
X133499503Y-62459436D01*
X133703626Y-62348970D01*
X133886784Y-62206413D01*
X134016064Y-62065976D01*
X134021438Y-62060375D01*
X134909314Y-61172500D01*
X134021450Y-60284635D01*
X134016027Y-60278982D01*
X133886784Y-60138586D01*
X133703626Y-59996029D01*
X133499503Y-59885563D01*
X133279979Y-59810201D01*
X133051051Y-59772000D01*
X133051049Y-59772000D01*
X132818951Y-59772000D01*
X132818949Y-59772000D01*
X132590020Y-59810201D01*
X132370496Y-59885563D01*
X132166373Y-59996029D01*
X131983215Y-60138586D01*
X131826021Y-60309346D01*
X131823641Y-60312989D01*
X131771254Y-60366248D01*
X131702353Y-60395121D01*
X131627647Y-60395121D01*
X131558746Y-60366248D01*
X131506359Y-60312989D01*
X131503978Y-60309346D01*
X131346784Y-60138586D01*
X131163626Y-59996029D01*
X130959503Y-59885563D01*
X130739979Y-59810201D01*
X130511051Y-59772000D01*
X130511049Y-59772000D01*
X130278951Y-59772000D01*
X130278949Y-59772000D01*
X130050020Y-59810201D01*
X129830496Y-59885563D01*
X129626373Y-59996029D01*
X129443215Y-60138586D01*
X129286021Y-60309346D01*
X129283641Y-60312989D01*
X129231254Y-60366248D01*
X129162353Y-60395121D01*
X129087647Y-60395121D01*
X129018746Y-60366248D01*
X128966359Y-60312989D01*
X128963978Y-60309346D01*
X128806784Y-60138586D01*
X128623626Y-59996029D01*
X128419503Y-59885563D01*
X128199979Y-59810201D01*
X127971051Y-59772000D01*
X127971049Y-59772000D01*
X127738951Y-59772000D01*
X127738949Y-59772000D01*
X127510020Y-59810201D01*
X127290496Y-59885563D01*
X127086373Y-59996029D01*
X126903215Y-60138586D01*
X126746021Y-60309346D01*
X126743641Y-60312989D01*
X126691254Y-60366248D01*
X126622353Y-60395121D01*
X126547647Y-60395121D01*
X126478746Y-60366248D01*
X126426359Y-60312989D01*
X126423978Y-60309346D01*
X126266784Y-60138586D01*
X126083626Y-59996029D01*
X125879503Y-59885563D01*
X125659979Y-59810201D01*
X125431051Y-59772000D01*
X125431049Y-59772000D01*
X125198951Y-59772000D01*
X125198949Y-59772000D01*
X124970020Y-59810201D01*
X124750496Y-59885563D01*
X124546373Y-59996029D01*
X124363215Y-60138586D01*
X124206021Y-60309346D01*
X124203641Y-60312989D01*
X124151254Y-60366248D01*
X124082353Y-60395121D01*
X124007647Y-60395121D01*
X123938746Y-60366248D01*
X123886359Y-60312989D01*
X123883978Y-60309346D01*
X123726784Y-60138586D01*
X123543626Y-59996029D01*
X123339503Y-59885563D01*
X123119979Y-59810201D01*
X122891051Y-59772000D01*
X122891049Y-59772000D01*
X122658951Y-59772000D01*
X122658949Y-59772000D01*
X122430020Y-59810201D01*
X122210496Y-59885563D01*
X122006373Y-59996029D01*
X121823215Y-60138586D01*
X121666021Y-60309346D01*
X121663641Y-60312989D01*
X121611254Y-60366248D01*
X121542353Y-60395121D01*
X121467647Y-60395121D01*
X121398746Y-60366248D01*
X121346359Y-60312989D01*
X121343978Y-60309346D01*
X121186784Y-60138586D01*
X121003626Y-59996029D01*
X120799503Y-59885563D01*
X120579979Y-59810201D01*
X120351051Y-59772000D01*
X120351049Y-59772000D01*
X120118951Y-59772000D01*
X120118949Y-59772000D01*
X119890020Y-59810201D01*
X119670496Y-59885563D01*
X119466373Y-59996029D01*
X119283215Y-60138586D01*
X119126021Y-60309346D01*
X119123641Y-60312989D01*
X119071254Y-60366248D01*
X119002353Y-60395121D01*
X118927647Y-60395121D01*
X118858746Y-60366248D01*
X118806359Y-60312989D01*
X118803978Y-60309346D01*
X118646784Y-60138586D01*
X118463626Y-59996029D01*
X118259503Y-59885563D01*
X118039979Y-59810201D01*
X117811051Y-59772000D01*
X117811049Y-59772000D01*
X117578951Y-59772000D01*
X117578949Y-59772000D01*
X117350020Y-59810201D01*
X117130496Y-59885563D01*
X116926373Y-59996029D01*
X116743215Y-60138586D01*
X116586021Y-60309346D01*
X116583641Y-60312989D01*
X116531254Y-60366248D01*
X116462353Y-60395121D01*
X116387647Y-60395121D01*
X116318746Y-60366248D01*
X116266359Y-60312989D01*
X116263978Y-60309346D01*
X116106784Y-60138586D01*
X115923626Y-59996029D01*
X115719503Y-59885563D01*
X115499979Y-59810201D01*
X115271051Y-59772000D01*
X115271049Y-59772000D01*
X115038951Y-59772000D01*
X115038949Y-59772000D01*
X114810020Y-59810201D01*
X114590496Y-59885563D01*
X114386373Y-59996029D01*
X114203215Y-60138586D01*
X114046021Y-60309346D01*
X114043641Y-60312989D01*
X113991254Y-60366248D01*
X113922353Y-60395121D01*
X113847647Y-60395121D01*
X113778746Y-60366248D01*
X113726359Y-60312989D01*
X113723978Y-60309346D01*
X113566784Y-60138586D01*
X113383626Y-59996029D01*
X113179503Y-59885563D01*
X112959979Y-59810201D01*
X112731051Y-59772000D01*
X112731049Y-59772000D01*
X112498951Y-59772000D01*
X112498949Y-59772000D01*
X112270020Y-59810201D01*
X112050496Y-59885563D01*
X111846373Y-59996029D01*
X111663215Y-60138586D01*
X111506021Y-60309346D01*
X111503641Y-60312989D01*
X111451254Y-60366248D01*
X111382353Y-60395121D01*
X111307647Y-60395121D01*
X111238746Y-60366248D01*
X111186359Y-60312989D01*
X111183978Y-60309346D01*
X111026784Y-60138586D01*
X110843626Y-59996029D01*
X110639503Y-59885563D01*
X110419979Y-59810201D01*
X110191051Y-59772000D01*
X110191049Y-59772000D01*
X109958951Y-59772000D01*
X109958949Y-59772000D01*
X109730020Y-59810201D01*
X109510496Y-59885563D01*
X109306373Y-59996029D01*
X109123215Y-60138586D01*
X108966021Y-60309346D01*
X108963641Y-60312989D01*
X108911254Y-60366248D01*
X108842353Y-60395121D01*
X108767647Y-60395121D01*
X108698746Y-60366248D01*
X108646359Y-60312989D01*
X108643978Y-60309346D01*
X108486784Y-60138586D01*
X108303626Y-59996029D01*
X108099503Y-59885563D01*
X107879979Y-59810201D01*
X107651051Y-59772000D01*
X107651049Y-59772000D01*
X107418951Y-59772000D01*
X107418949Y-59772000D01*
X107190020Y-59810201D01*
X106970496Y-59885563D01*
X106766373Y-59996029D01*
X106583215Y-60138586D01*
X106426021Y-60309346D01*
X106423641Y-60312989D01*
X106371254Y-60366248D01*
X106302353Y-60395121D01*
X106227647Y-60395121D01*
X106158746Y-60366248D01*
X106106359Y-60312989D01*
X106103978Y-60309346D01*
X105946784Y-60138586D01*
X105763626Y-59996029D01*
X105559503Y-59885563D01*
X105339979Y-59810201D01*
X105111051Y-59772000D01*
X105111049Y-59772000D01*
X104878951Y-59772000D01*
X104878949Y-59772000D01*
X104650020Y-59810201D01*
X104430496Y-59885563D01*
X104226373Y-59996029D01*
X104043215Y-60138586D01*
X103886021Y-60309346D01*
X103883641Y-60312989D01*
X103831254Y-60366248D01*
X103762353Y-60395121D01*
X103687647Y-60395121D01*
X103618746Y-60366248D01*
X103566359Y-60312989D01*
X103563978Y-60309346D01*
X103406784Y-60138586D01*
X103223626Y-59996029D01*
X103019503Y-59885563D01*
X102799979Y-59810201D01*
X102571051Y-59772000D01*
X102571049Y-59772000D01*
X102338951Y-59772000D01*
X102338949Y-59772000D01*
X102110020Y-59810201D01*
X101890496Y-59885563D01*
X101686373Y-59996029D01*
X101503215Y-60138586D01*
X101346020Y-60309346D01*
X101219078Y-60503647D01*
X101219076Y-60503649D01*
X101219076Y-60503651D01*
X101215023Y-60512891D01*
X101125841Y-60716202D01*
X101091213Y-60852946D01*
X101056830Y-60923107D01*
X100997062Y-60973432D01*
X100922071Y-60995366D01*
X100844605Y-60985180D01*
X100777833Y-60944605D01*
X100733107Y-60880541D01*
X100675130Y-60744110D01*
X100534018Y-60512890D01*
X100444743Y-60405615D01*
X100360746Y-60304681D01*
X100332064Y-60278982D01*
X100159002Y-60123918D01*
X99933090Y-59974456D01*
X99687824Y-59859480D01*
X99428431Y-59781440D01*
X99160439Y-59742000D01*
X98957369Y-59742000D01*
X98957363Y-59742000D01*
X98754844Y-59756822D01*
X98490448Y-59815719D01*
X98237441Y-59912486D01*
X98001224Y-60045058D01*
X97786819Y-60210614D01*
X97598816Y-60405615D01*
X97441198Y-60625924D01*
X97317344Y-60866823D01*
X97229882Y-61123192D01*
X97180681Y-61389565D01*
X97170788Y-61660268D01*
X97200414Y-61929517D01*
X97268928Y-62191589D01*
X97275228Y-62206413D01*
X97374870Y-62440890D01*
X97446431Y-62558146D01*
X97515980Y-62672108D01*
X97666328Y-62852771D01*
X97689255Y-62880320D01*
X97890998Y-63061082D01*
X98116910Y-63210544D01*
X98362176Y-63325520D01*
X98621569Y-63403560D01*
X98889561Y-63443000D01*
X99092631Y-63443000D01*
X99092637Y-63443000D01*
X99266223Y-63430294D01*
X99295156Y-63428177D01*
X99559553Y-63369280D01*
X99812558Y-63272514D01*
X100048777Y-63139941D01*
X100263177Y-62974388D01*
X100451186Y-62779381D01*
X100608799Y-62559079D01*
X100732656Y-62318175D01*
X100818677Y-62066029D01*
X100820118Y-62061806D01*
X100854929Y-61873339D01*
X100885619Y-61799680D01*
X100943909Y-61745186D01*
X101019464Y-61719518D01*
X101098886Y-61727227D01*
X101168094Y-61766947D01*
X101214815Y-61831635D01*
X101219076Y-61841349D01*
X101346020Y-62035653D01*
X101503215Y-62206413D01*
X101686373Y-62348970D01*
X101890496Y-62459436D01*
X102000258Y-62497117D01*
X102110019Y-62534798D01*
X102186329Y-62547532D01*
X102338949Y-62573000D01*
X102338951Y-62573000D01*
X102571049Y-62573000D01*
X102571051Y-62573000D01*
X102685514Y-62553899D01*
X102799981Y-62534798D01*
X103019503Y-62459436D01*
X103223626Y-62348970D01*
X103406784Y-62206413D01*
X103563979Y-62035653D01*
X103566355Y-62032015D01*
X103618744Y-61978753D01*
X103687646Y-61949878D01*
X103762354Y-61949878D01*
X103831256Y-61978753D01*
X103883644Y-62032015D01*
X103886021Y-62035654D01*
X104043215Y-62206413D01*
X104226373Y-62348970D01*
X104430496Y-62459436D01*
X104540258Y-62497117D01*
X104650019Y-62534798D01*
X104726329Y-62547532D01*
X104878949Y-62573000D01*
X104878951Y-62573000D01*
X105111049Y-62573000D01*
X105111051Y-62573000D01*
X105225514Y-62553899D01*
X105339981Y-62534798D01*
X105559503Y-62459436D01*
X105763626Y-62348970D01*
X105946784Y-62206413D01*
X106103979Y-62035653D01*
X106106355Y-62032015D01*
X106158744Y-61978753D01*
X106227646Y-61949878D01*
X106302354Y-61949878D01*
X106371256Y-61978753D01*
X106423644Y-62032015D01*
X106426021Y-62035654D01*
X106583215Y-62206413D01*
X106766373Y-62348970D01*
X106970496Y-62459436D01*
X107080258Y-62497117D01*
X107190019Y-62534798D01*
X107266329Y-62547532D01*
X107418949Y-62573000D01*
X107418951Y-62573000D01*
X107651049Y-62573000D01*
X107651051Y-62573000D01*
X107765514Y-62553899D01*
X107879981Y-62534798D01*
X108099503Y-62459436D01*
X108303626Y-62348970D01*
X108486784Y-62206413D01*
X108643979Y-62035653D01*
X108646355Y-62032015D01*
X108698744Y-61978753D01*
X108767646Y-61949878D01*
X108842354Y-61949878D01*
X108911256Y-61978753D01*
X108963644Y-62032015D01*
X108966021Y-62035654D01*
X109123215Y-62206413D01*
X109306373Y-62348970D01*
X109510496Y-62459436D01*
X109620258Y-62497117D01*
X109730019Y-62534798D01*
X109806329Y-62547532D01*
X109958949Y-62573000D01*
X109958951Y-62573000D01*
X110191049Y-62573000D01*
X110191051Y-62573000D01*
X110305514Y-62553899D01*
X110419981Y-62534798D01*
X110639503Y-62459436D01*
X110843626Y-62348970D01*
X111026784Y-62206413D01*
X111183979Y-62035653D01*
X111186355Y-62032015D01*
X111238744Y-61978753D01*
X111307646Y-61949878D01*
X111382354Y-61949878D01*
X111451256Y-61978753D01*
X111503644Y-62032015D01*
X111506021Y-62035654D01*
X111663215Y-62206413D01*
X111846373Y-62348970D01*
X112050496Y-62459436D01*
X112160258Y-62497117D01*
X112270019Y-62534798D01*
X112346329Y-62547532D01*
X112498949Y-62573000D01*
X112498951Y-62573000D01*
X112731049Y-62573000D01*
X112731051Y-62573000D01*
X112845514Y-62553899D01*
X112959981Y-62534798D01*
X113179503Y-62459436D01*
X113383626Y-62348970D01*
X113566784Y-62206413D01*
X113723979Y-62035653D01*
X113726355Y-62032015D01*
X113778744Y-61978753D01*
X113847646Y-61949878D01*
X113922354Y-61949878D01*
X113991256Y-61978753D01*
X114043644Y-62032015D01*
X114046021Y-62035654D01*
X114203215Y-62206413D01*
X114386373Y-62348970D01*
X114590496Y-62459436D01*
X114700258Y-62497117D01*
X114810019Y-62534798D01*
X114886329Y-62547532D01*
X115038949Y-62573000D01*
X115038951Y-62573000D01*
X115271049Y-62573000D01*
X115271051Y-62573000D01*
X115385514Y-62553899D01*
X115499981Y-62534798D01*
X115719503Y-62459436D01*
X115923626Y-62348970D01*
X116106784Y-62206413D01*
X116263979Y-62035653D01*
X116266355Y-62032015D01*
X116318744Y-61978753D01*
X116387646Y-61949878D01*
X116462354Y-61949878D01*
X116531256Y-61978753D01*
X116583644Y-62032015D01*
X116586021Y-62035654D01*
X116743215Y-62206413D01*
X116926373Y-62348970D01*
X117130496Y-62459436D01*
X117240258Y-62497117D01*
X117350019Y-62534798D01*
X117426329Y-62547532D01*
X117578949Y-62573000D01*
X117578951Y-62573000D01*
X117811049Y-62573000D01*
X117811051Y-62573000D01*
X117925514Y-62553899D01*
X118039981Y-62534798D01*
X118259503Y-62459436D01*
X118463626Y-62348970D01*
X118646784Y-62206413D01*
X118803979Y-62035653D01*
X118806355Y-62032015D01*
X118858744Y-61978753D01*
X118927646Y-61949878D01*
X119002354Y-61949878D01*
X119071256Y-61978753D01*
X119123644Y-62032015D01*
X119126021Y-62035654D01*
X119283215Y-62206413D01*
X119466373Y-62348970D01*
X119670496Y-62459436D01*
X119780258Y-62497117D01*
X119890019Y-62534798D01*
X119966329Y-62547532D01*
X120118949Y-62573000D01*
X120118951Y-62573000D01*
X120351049Y-62573000D01*
X120351051Y-62573000D01*
X120465514Y-62553899D01*
X120579981Y-62534798D01*
X120799503Y-62459436D01*
X121003626Y-62348970D01*
X121186784Y-62206413D01*
X121343979Y-62035653D01*
X121346355Y-62032015D01*
X121398744Y-61978753D01*
X121467646Y-61949878D01*
X121542354Y-61949878D01*
X121611256Y-61978753D01*
X121663644Y-62032015D01*
X121666021Y-62035654D01*
X121823215Y-62206413D01*
X122006373Y-62348970D01*
X122210496Y-62459436D01*
X122320258Y-62497117D01*
X122430019Y-62534798D01*
X122506329Y-62547532D01*
X122658949Y-62573000D01*
X122658951Y-62573000D01*
X122891049Y-62573000D01*
X122891051Y-62573000D01*
X123005514Y-62553899D01*
X123119981Y-62534798D01*
X123339503Y-62459436D01*
X123543626Y-62348970D01*
X123726784Y-62206413D01*
X123883979Y-62035653D01*
X123886355Y-62032015D01*
X123938744Y-61978753D01*
X124007646Y-61949878D01*
X124082354Y-61949878D01*
X124151256Y-61978753D01*
X124203644Y-62032015D01*
X124206021Y-62035654D01*
X124363215Y-62206413D01*
X124546373Y-62348970D01*
X124750496Y-62459436D01*
X124860258Y-62497117D01*
X124970019Y-62534798D01*
X125046329Y-62547532D01*
X125198949Y-62573000D01*
X125198951Y-62573000D01*
X125431049Y-62573000D01*
X125431051Y-62573000D01*
X125583670Y-62547532D01*
X125659981Y-62534798D01*
X125683222Y-62526819D01*
X125752585Y-62516712D01*
X125820876Y-62532511D01*
X125878753Y-62572053D01*
X128128424Y-64821724D01*
X128144765Y-64840358D01*
X128160991Y-64861504D01*
X128191991Y-64885291D01*
X128284450Y-64956238D01*
X128428217Y-65015789D01*
X128446165Y-65018151D01*
X128582500Y-65036100D01*
X128605211Y-65033110D01*
X128608928Y-65032621D01*
X128633661Y-65031000D01*
X133016706Y-65031000D01*
X133089225Y-65045425D01*
X133150703Y-65086503D01*
X134693997Y-66629797D01*
X134735075Y-66691275D01*
X134749500Y-66763794D01*
X134749500Y-67881519D01*
X134764353Y-67975303D01*
X134821949Y-68088341D01*
X134911658Y-68178050D01*
X135024695Y-68235646D01*
X135118481Y-68250500D01*
X135169500Y-68250500D01*
X135242019Y-68264925D01*
X135303497Y-68306003D01*
X135344575Y-68367481D01*
X135359000Y-68440000D01*
X135359000Y-70438910D01*
X135347797Y-70503101D01*
X135315512Y-70559702D01*
X135265963Y-70602021D01*
X135173135Y-70656918D01*
X135056918Y-70773135D01*
X134973254Y-70914604D01*
X134927401Y-71072427D01*
X134924500Y-71109306D01*
X134924500Y-72490694D01*
X134927401Y-72527572D01*
X134973254Y-72685395D01*
X135056918Y-72826864D01*
X135173135Y-72943081D01*
X135314604Y-73026745D01*
X135472427Y-73072598D01*
X135509306Y-73075500D01*
X136265694Y-73075500D01*
X136302572Y-73072598D01*
X136460395Y-73026745D01*
X136460395Y-73026744D01*
X136460398Y-73026744D01*
X136601865Y-72943081D01*
X136718081Y-72826865D01*
X136732700Y-72802143D01*
X136777792Y-72750344D01*
X136838385Y-72718017D01*
X136906521Y-72709409D01*
X136973251Y-72725651D01*
X137029809Y-72764609D01*
X140141202Y-75876003D01*
X140182280Y-75937481D01*
X140196705Y-76010000D01*
X140182280Y-76082518D01*
X140141202Y-76143997D01*
X140079724Y-76185075D01*
X140007205Y-76199500D01*
X138688480Y-76199500D01*
X138594696Y-76214353D01*
X138481658Y-76271949D01*
X138391949Y-76361658D01*
X138334353Y-76474695D01*
X138319500Y-76568481D01*
X138319500Y-78016797D01*
X138305075Y-78089315D01*
X138263996Y-78150794D01*
X137524659Y-78890133D01*
X137524660Y-78890133D01*
X137400131Y-79014661D01*
X137382295Y-79043046D01*
X137370004Y-79060368D01*
X137349098Y-79086583D01*
X137334554Y-79116786D01*
X137324278Y-79135380D01*
X137306438Y-79163772D01*
X137295364Y-79195419D01*
X137287237Y-79215038D01*
X137272687Y-79245253D01*
X137265226Y-79277941D01*
X137259346Y-79298351D01*
X137248272Y-79330000D01*
X137244518Y-79363321D01*
X137240959Y-79384268D01*
X137233501Y-79416945D01*
X137233501Y-79450608D01*
X137233500Y-79450626D01*
X137233500Y-85313409D01*
X137224860Y-85369978D01*
X137199726Y-85421388D01*
X137160392Y-85462952D01*
X137063217Y-85538585D01*
X136933984Y-85678970D01*
X136928561Y-85684622D01*
X136040685Y-86572499D01*
X136928548Y-87460363D01*
X136933971Y-87466016D01*
X137063215Y-87606413D01*
X137246373Y-87748970D01*
X137450496Y-87859436D01*
X137540622Y-87890376D01*
X137670019Y-87934798D01*
X137745335Y-87947366D01*
X137898949Y-87973000D01*
X137898951Y-87973000D01*
X138131049Y-87973000D01*
X138188444Y-87963421D01*
X138248247Y-87963009D01*
X138305201Y-87981255D01*
X138353633Y-88016340D01*
X141855271Y-91517977D01*
X145177633Y-94840339D01*
X145177633Y-94840340D01*
X145302160Y-94964867D01*
X145302162Y-94964868D01*
X145302163Y-94964869D01*
X145330540Y-94982700D01*
X145347869Y-94994995D01*
X145374086Y-95015902D01*
X145404296Y-95030450D01*
X145422876Y-95040718D01*
X145451274Y-95058562D01*
X145482926Y-95069637D01*
X145502541Y-95077762D01*
X145532754Y-95092312D01*
X145565449Y-95099774D01*
X145585844Y-95105650D01*
X145617500Y-95116727D01*
X145650834Y-95120482D01*
X145671750Y-95124036D01*
X145704446Y-95131499D01*
X145738108Y-95131499D01*
X145738126Y-95131500D01*
X145748612Y-95131500D01*
X147529729Y-95131500D01*
X147595317Y-95143212D01*
X147652798Y-95176902D01*
X147695066Y-95228404D01*
X147704885Y-95256721D01*
X147714354Y-95275304D01*
X147771950Y-95388342D01*
X147861658Y-95478050D01*
X147974696Y-95535646D01*
X147974697Y-95535646D01*
X147993275Y-95545112D01*
X148021594Y-95554933D01*
X148073097Y-95597201D01*
X148106787Y-95654682D01*
X148118500Y-95720271D01*
X148118500Y-97872799D01*
X148104075Y-97945318D01*
X148062997Y-98006796D01*
X148060131Y-98009661D01*
X148042295Y-98038046D01*
X148030004Y-98055368D01*
X148009098Y-98081583D01*
X147994554Y-98111786D01*
X147984278Y-98130380D01*
X147966438Y-98158772D01*
X147955364Y-98190419D01*
X147947237Y-98210038D01*
X147932687Y-98240253D01*
X147925226Y-98272941D01*
X147919346Y-98293351D01*
X147908272Y-98325000D01*
X147904518Y-98358321D01*
X147900959Y-98379268D01*
X147893501Y-98411945D01*
X147893501Y-98445608D01*
X147893500Y-98445626D01*
X147893500Y-98833339D01*
X147885081Y-98889195D01*
X147860572Y-98940088D01*
X147822151Y-98981496D01*
X147778433Y-99016359D01*
X147235131Y-99559661D01*
X147234399Y-99560827D01*
X147192099Y-99608158D01*
X147136540Y-99638865D01*
X147073958Y-99649500D01*
X147068483Y-99649500D01*
X146974697Y-99664353D01*
X146861658Y-99721949D01*
X146771949Y-99811658D01*
X146714353Y-99924695D01*
X146699500Y-100018480D01*
X146699500Y-102081519D01*
X146714353Y-102175303D01*
X146771949Y-102288341D01*
X146861658Y-102378050D01*
X146974695Y-102435646D01*
X146989548Y-102437998D01*
X147068481Y-102450500D01*
X148631518Y-102450499D01*
X148631519Y-102450499D01*
X148678411Y-102443072D01*
X148725304Y-102435646D01*
X148838342Y-102378050D01*
X148866002Y-102350389D01*
X148927481Y-102309311D01*
X149000000Y-102294886D01*
X149072519Y-102309311D01*
X149133997Y-102350389D01*
X149161659Y-102378051D01*
X149265032Y-102430723D01*
X149319826Y-102472768D01*
X149355914Y-102531657D01*
X149368500Y-102599568D01*
X149368500Y-105760001D01*
X149354075Y-105832520D01*
X149312997Y-105893998D01*
X149251519Y-105935076D01*
X149179000Y-105949501D01*
X148218480Y-105949501D01*
X148124696Y-105964353D01*
X148011658Y-106021949D01*
X147921949Y-106111658D01*
X147864353Y-106224695D01*
X147849500Y-106318480D01*
X147849500Y-108381519D01*
X147864353Y-108475303D01*
X147921949Y-108588341D01*
X148011658Y-108678050D01*
X148124695Y-108735646D01*
X148139548Y-108737998D01*
X148218481Y-108750500D01*
X150366797Y-108750499D01*
X150439315Y-108764924D01*
X150500794Y-108806002D01*
X151484683Y-109789891D01*
X151525761Y-109851369D01*
X151540186Y-109923888D01*
X151525761Y-109996407D01*
X151484683Y-110057885D01*
X151423205Y-110098963D01*
X151350686Y-110113388D01*
X150305159Y-110113388D01*
X150239571Y-110101676D01*
X150182090Y-110067986D01*
X150139822Y-110016484D01*
X150130002Y-109988166D01*
X150062938Y-109856546D01*
X149973229Y-109766837D01*
X149860192Y-109709241D01*
X149766407Y-109694388D01*
X148103368Y-109694388D01*
X148009584Y-109709241D01*
X147896546Y-109766837D01*
X147785615Y-109877769D01*
X147784688Y-109876842D01*
X147775554Y-109888615D01*
X147714427Y-109924758D01*
X147644288Y-109935862D01*
X147574986Y-109920369D01*
X147516253Y-109880453D01*
X141306002Y-103670202D01*
X141264924Y-103608724D01*
X141250499Y-103536205D01*
X141250499Y-102318480D01*
X141235646Y-102224696D01*
X141178050Y-102111658D01*
X141088341Y-102021949D01*
X140975304Y-101964353D01*
X140881519Y-101949500D01*
X139118480Y-101949500D01*
X139024696Y-101964353D01*
X138911658Y-102021949D01*
X138901328Y-102032280D01*
X138836397Y-102074749D01*
X138759888Y-102087637D01*
X138684628Y-102068783D01*
X138643605Y-102037090D01*
X138641674Y-102039352D01*
X138432840Y-101860990D01*
X138211402Y-101725293D01*
X137971456Y-101625904D01*
X137860000Y-101599146D01*
X137860000Y-104800853D01*
X137971456Y-104774095D01*
X138211402Y-104674706D01*
X138432840Y-104539009D01*
X138641674Y-104360648D01*
X138643605Y-104362909D01*
X138684628Y-104331217D01*
X138759888Y-104312363D01*
X138836397Y-104325251D01*
X138901328Y-104367720D01*
X138911658Y-104378050D01*
X139024695Y-104435646D01*
X139039549Y-104437998D01*
X139118481Y-104450500D01*
X140336205Y-104450499D01*
X140408723Y-104464924D01*
X140470202Y-104506002D01*
X145944591Y-109980391D01*
X145985669Y-110041869D01*
X146000094Y-110114388D01*
X145985669Y-110186907D01*
X145944591Y-110248385D01*
X145883113Y-110289463D01*
X145810594Y-110303888D01*
X125358182Y-110303888D01*
X125285663Y-110289463D01*
X125224185Y-110248385D01*
X107854550Y-92878750D01*
X107814545Y-92819810D01*
X107799127Y-92750264D01*
X107810475Y-92679940D01*
X107846986Y-92618774D01*
X107903500Y-92575409D01*
X107972032Y-92555974D01*
X107979999Y-92555276D01*
X107980000Y-92555277D01*
X108197977Y-92536207D01*
X108409330Y-92479575D01*
X108607639Y-92387102D01*
X108786877Y-92261598D01*
X108941598Y-92106877D01*
X109067102Y-91927639D01*
X109078254Y-91903722D01*
X109119956Y-91845971D01*
X109180035Y-91807697D01*
X109250000Y-91794308D01*
X109319965Y-91807697D01*
X109380044Y-91845971D01*
X109421745Y-91903722D01*
X109425246Y-91911229D01*
X109432898Y-91927640D01*
X109558400Y-92106875D01*
X109713124Y-92261599D01*
X109892362Y-92387103D01*
X110039631Y-92455775D01*
X110090670Y-92479575D01*
X110302023Y-92536207D01*
X110500928Y-92553608D01*
X110519999Y-92555277D01*
X110519999Y-92555276D01*
X110520000Y-92555277D01*
X110737977Y-92536207D01*
X110949330Y-92479575D01*
X111147639Y-92387102D01*
X111326877Y-92261598D01*
X111481598Y-92106877D01*
X111607102Y-91927639D01*
X111618254Y-91903722D01*
X111659956Y-91845971D01*
X111720035Y-91807697D01*
X111790000Y-91794308D01*
X111859965Y-91807697D01*
X111920044Y-91845971D01*
X111961745Y-91903722D01*
X111965246Y-91911229D01*
X111972898Y-91927640D01*
X112098400Y-92106875D01*
X112253124Y-92261599D01*
X112432362Y-92387103D01*
X112579631Y-92455775D01*
X112630670Y-92479575D01*
X112842023Y-92536207D01*
X113040928Y-92553608D01*
X113059999Y-92555277D01*
X113059999Y-92555276D01*
X113060000Y-92555277D01*
X113277977Y-92536207D01*
X113489330Y-92479575D01*
X113687639Y-92387102D01*
X113866877Y-92261598D01*
X114021598Y-92106877D01*
X114147102Y-91927639D01*
X114158254Y-91903722D01*
X114199956Y-91845971D01*
X114260035Y-91807697D01*
X114330000Y-91794308D01*
X114399965Y-91807697D01*
X114460044Y-91845971D01*
X114501745Y-91903722D01*
X114505246Y-91911229D01*
X114512898Y-91927640D01*
X114638400Y-92106875D01*
X114793124Y-92261599D01*
X114972362Y-92387103D01*
X115119631Y-92455775D01*
X115170670Y-92479575D01*
X115382023Y-92536207D01*
X115580928Y-92553608D01*
X115599999Y-92555277D01*
X115599999Y-92555276D01*
X115600000Y-92555277D01*
X115817977Y-92536207D01*
X116029330Y-92479575D01*
X116227639Y-92387102D01*
X116406877Y-92261598D01*
X116561598Y-92106877D01*
X116687102Y-91927639D01*
X116698254Y-91903722D01*
X116739956Y-91845971D01*
X116800035Y-91807697D01*
X116870000Y-91794308D01*
X116939965Y-91807697D01*
X117000044Y-91845971D01*
X117041745Y-91903722D01*
X117045246Y-91911229D01*
X117052898Y-91927640D01*
X117178400Y-92106875D01*
X117333124Y-92261599D01*
X117512362Y-92387103D01*
X117659631Y-92455775D01*
X117710670Y-92479575D01*
X117922023Y-92536207D01*
X118120928Y-92553608D01*
X118139999Y-92555277D01*
X118139999Y-92555276D01*
X118140000Y-92555277D01*
X118357977Y-92536207D01*
X118569330Y-92479575D01*
X118767639Y-92387102D01*
X118946877Y-92261598D01*
X119101598Y-92106877D01*
X119227102Y-91927639D01*
X119238254Y-91903722D01*
X119279956Y-91845971D01*
X119340035Y-91807697D01*
X119410000Y-91794308D01*
X119479965Y-91807697D01*
X119540044Y-91845971D01*
X119581745Y-91903722D01*
X119585246Y-91911229D01*
X119592898Y-91927640D01*
X119718400Y-92106875D01*
X119873124Y-92261599D01*
X120052362Y-92387103D01*
X120199631Y-92455775D01*
X120250670Y-92479575D01*
X120462023Y-92536207D01*
X120660928Y-92553608D01*
X120679999Y-92555277D01*
X120679999Y-92555276D01*
X120680000Y-92555277D01*
X120897977Y-92536207D01*
X121109330Y-92479575D01*
X121307639Y-92387102D01*
X121486877Y-92261598D01*
X121641598Y-92106877D01*
X121767102Y-91927639D01*
X121859575Y-91729330D01*
X121916207Y-91517977D01*
X121935277Y-91300000D01*
X121916207Y-91082023D01*
X121886424Y-90970871D01*
X121880688Y-90905309D01*
X121897722Y-90841739D01*
X121935467Y-90787831D01*
X124751248Y-87972050D01*
X124809121Y-87932511D01*
X124877411Y-87916712D01*
X124946772Y-87926818D01*
X124970017Y-87934798D01*
X125198949Y-87973000D01*
X125198951Y-87973000D01*
X125431049Y-87973000D01*
X125431051Y-87973000D01*
X125550902Y-87953000D01*
X125659981Y-87934798D01*
X125879503Y-87859436D01*
X126083626Y-87748970D01*
X126266784Y-87606413D01*
X126423979Y-87435653D01*
X126426355Y-87432015D01*
X126478744Y-87378753D01*
X126547646Y-87349878D01*
X126622354Y-87349878D01*
X126691256Y-87378753D01*
X126743644Y-87432015D01*
X126746021Y-87435654D01*
X126903215Y-87606413D01*
X127086373Y-87748970D01*
X127290496Y-87859436D01*
X127380622Y-87890376D01*
X127510019Y-87934798D01*
X127585335Y-87947366D01*
X127738949Y-87973000D01*
X127738951Y-87973000D01*
X127971049Y-87973000D01*
X127971051Y-87973000D01*
X128124665Y-87947366D01*
X128199981Y-87934798D01*
X128223222Y-87926819D01*
X128292585Y-87916712D01*
X128360876Y-87932511D01*
X128418753Y-87972053D01*
X131733497Y-91286797D01*
X131774575Y-91348275D01*
X131789000Y-91420794D01*
X131789000Y-101988596D01*
X131779381Y-102048202D01*
X131751502Y-102101757D01*
X131708193Y-102143825D01*
X131573125Y-102238400D01*
X131418400Y-102393125D01*
X131292895Y-102572364D01*
X131281744Y-102596279D01*
X131240042Y-102654029D01*
X131179964Y-102692303D01*
X131110000Y-102705691D01*
X131040036Y-102692303D01*
X130979958Y-102654029D01*
X130938256Y-102596279D01*
X130927104Y-102572364D01*
X130801597Y-102393122D01*
X130646878Y-102238402D01*
X130467637Y-102112896D01*
X130269331Y-102020425D01*
X130057977Y-101963793D01*
X129840000Y-101944722D01*
X129622022Y-101963793D01*
X129410667Y-102020425D01*
X129212363Y-102112896D01*
X129033125Y-102238400D01*
X128878400Y-102393125D01*
X128752896Y-102572363D01*
X128660425Y-102770667D01*
X128603793Y-102982022D01*
X128584722Y-103199999D01*
X128603793Y-103417977D01*
X128660425Y-103629331D01*
X128752896Y-103827637D01*
X128878400Y-104006875D01*
X129033124Y-104161599D01*
X129212362Y-104287103D01*
X129370081Y-104360648D01*
X129410670Y-104379575D01*
X129622023Y-104436207D01*
X129840000Y-104455277D01*
X130057977Y-104436207D01*
X130269330Y-104379575D01*
X130467639Y-104287102D01*
X130646877Y-104161598D01*
X130801598Y-104006877D01*
X130927102Y-103827639D01*
X130938254Y-103803722D01*
X130979956Y-103745971D01*
X131040035Y-103707697D01*
X131110000Y-103694308D01*
X131179965Y-103707697D01*
X131240044Y-103745971D01*
X131281746Y-103803723D01*
X131292898Y-103827640D01*
X131418400Y-104006875D01*
X131573124Y-104161599D01*
X131752362Y-104287103D01*
X131910081Y-104360648D01*
X131950670Y-104379575D01*
X132162023Y-104436207D01*
X132380000Y-104455277D01*
X132597977Y-104436207D01*
X132809330Y-104379575D01*
X133007639Y-104287102D01*
X133186877Y-104161598D01*
X133341598Y-104006877D01*
X133467102Y-103827639D01*
X133478254Y-103803722D01*
X133519956Y-103745971D01*
X133580035Y-103707697D01*
X133650000Y-103694308D01*
X133719965Y-103707697D01*
X133780044Y-103745971D01*
X133821746Y-103803723D01*
X133832898Y-103827640D01*
X133958400Y-104006875D01*
X134113124Y-104161599D01*
X134292362Y-104287103D01*
X134450081Y-104360648D01*
X134490670Y-104379575D01*
X134702023Y-104436207D01*
X134920000Y-104455277D01*
X135137977Y-104436207D01*
X135349330Y-104379575D01*
X135547639Y-104287102D01*
X135726877Y-104161598D01*
X135796999Y-104091475D01*
X135853011Y-104052763D01*
X135919095Y-104036348D01*
X135986714Y-104044351D01*
X136047140Y-104075740D01*
X136092569Y-104126461D01*
X136120990Y-104172840D01*
X136289666Y-104370333D01*
X136487159Y-104539009D01*
X136708597Y-104674706D01*
X136948543Y-104774095D01*
X137060000Y-104800853D01*
X137060000Y-101599146D01*
X136948543Y-101625904D01*
X136708597Y-101725293D01*
X136487159Y-101860990D01*
X136289666Y-102029666D01*
X136120991Y-102227157D01*
X136092569Y-102273539D01*
X136047139Y-102324260D01*
X135986714Y-102355648D01*
X135919095Y-102363651D01*
X135853012Y-102347236D01*
X135796997Y-102308522D01*
X135726875Y-102238400D01*
X135591807Y-102143824D01*
X135548498Y-102101756D01*
X135520618Y-102048201D01*
X135511000Y-101988595D01*
X135511000Y-88608661D01*
X135512621Y-88583928D01*
X135519356Y-88532767D01*
X135520934Y-88532974D01*
X135522927Y-88501436D01*
X135554785Y-88435675D01*
X135609156Y-88386857D01*
X135677955Y-88362240D01*
X135876664Y-88332290D01*
X136134457Y-88252770D01*
X136377522Y-88135718D01*
X136434015Y-88097201D01*
X135475000Y-87138185D01*
X134021450Y-85684635D01*
X134016027Y-85678982D01*
X133886784Y-85538586D01*
X133703626Y-85396029D01*
X133499503Y-85285563D01*
X133279979Y-85210201D01*
X133051051Y-85172000D01*
X133051049Y-85172000D01*
X132818951Y-85172000D01*
X132818949Y-85172000D01*
X132590020Y-85210201D01*
X132370496Y-85285563D01*
X132166373Y-85396029D01*
X131983215Y-85538586D01*
X131826021Y-85709346D01*
X131823641Y-85712989D01*
X131771254Y-85766248D01*
X131702353Y-85795121D01*
X131627647Y-85795121D01*
X131558746Y-85766248D01*
X131506359Y-85712989D01*
X131503978Y-85709346D01*
X131346784Y-85538586D01*
X131163626Y-85396029D01*
X130959503Y-85285563D01*
X130739979Y-85210201D01*
X130511051Y-85172000D01*
X130511049Y-85172000D01*
X130278951Y-85172000D01*
X130278949Y-85172000D01*
X130050020Y-85210201D01*
X129830496Y-85285563D01*
X129626373Y-85396029D01*
X129443215Y-85538586D01*
X129286021Y-85709346D01*
X129283641Y-85712989D01*
X129231254Y-85766248D01*
X129162353Y-85795121D01*
X129087647Y-85795121D01*
X129018746Y-85766248D01*
X128966359Y-85712989D01*
X128963978Y-85709346D01*
X128806784Y-85538586D01*
X128623626Y-85396029D01*
X128419503Y-85285563D01*
X128199979Y-85210201D01*
X127971051Y-85172000D01*
X127971049Y-85172000D01*
X127738951Y-85172000D01*
X127738949Y-85172000D01*
X127510020Y-85210201D01*
X127290496Y-85285563D01*
X127086373Y-85396029D01*
X126903215Y-85538586D01*
X126746021Y-85709346D01*
X126743641Y-85712989D01*
X126691254Y-85766248D01*
X126622353Y-85795121D01*
X126547647Y-85795121D01*
X126478746Y-85766248D01*
X126426359Y-85712989D01*
X126423978Y-85709346D01*
X126266784Y-85538586D01*
X126083626Y-85396029D01*
X125879503Y-85285563D01*
X125659979Y-85210201D01*
X125431051Y-85172000D01*
X125431049Y-85172000D01*
X125198951Y-85172000D01*
X125198949Y-85172000D01*
X124970020Y-85210201D01*
X124750496Y-85285563D01*
X124546373Y-85396029D01*
X124363215Y-85538586D01*
X124206021Y-85709346D01*
X124203641Y-85712989D01*
X124151254Y-85766248D01*
X124082353Y-85795121D01*
X124007647Y-85795121D01*
X123938746Y-85766248D01*
X123886359Y-85712989D01*
X123883978Y-85709346D01*
X123726784Y-85538586D01*
X123543626Y-85396029D01*
X123339503Y-85285563D01*
X123119979Y-85210201D01*
X122891051Y-85172000D01*
X122891049Y-85172000D01*
X122658951Y-85172000D01*
X122658949Y-85172000D01*
X122430020Y-85210201D01*
X122210496Y-85285563D01*
X122006373Y-85396029D01*
X121823215Y-85538586D01*
X121666021Y-85709346D01*
X121663641Y-85712989D01*
X121611254Y-85766248D01*
X121542353Y-85795121D01*
X121467647Y-85795121D01*
X121398746Y-85766248D01*
X121346359Y-85712989D01*
X121343978Y-85709346D01*
X121186784Y-85538586D01*
X121003626Y-85396029D01*
X120799503Y-85285563D01*
X120579979Y-85210201D01*
X120351051Y-85172000D01*
X120351049Y-85172000D01*
X120118951Y-85172000D01*
X120118949Y-85172000D01*
X119890020Y-85210201D01*
X119670496Y-85285563D01*
X119466373Y-85396029D01*
X119283215Y-85538586D01*
X119126021Y-85709346D01*
X119123641Y-85712989D01*
X119071254Y-85766248D01*
X119002353Y-85795121D01*
X118927647Y-85795121D01*
X118858746Y-85766248D01*
X118806359Y-85712989D01*
X118803978Y-85709346D01*
X118646784Y-85538586D01*
X118463626Y-85396029D01*
X118259503Y-85285563D01*
X118039979Y-85210201D01*
X117811051Y-85172000D01*
X117811049Y-85172000D01*
X117578951Y-85172000D01*
X117578949Y-85172000D01*
X117350020Y-85210201D01*
X117130496Y-85285563D01*
X116926373Y-85396029D01*
X116743215Y-85538586D01*
X116586021Y-85709346D01*
X116583641Y-85712989D01*
X116531254Y-85766248D01*
X116462353Y-85795121D01*
X116387647Y-85795121D01*
X116318746Y-85766248D01*
X116266359Y-85712989D01*
X116263978Y-85709346D01*
X116106784Y-85538586D01*
X115923626Y-85396029D01*
X115719503Y-85285563D01*
X115499979Y-85210201D01*
X115271051Y-85172000D01*
X115271049Y-85172000D01*
X115038951Y-85172000D01*
X115038949Y-85172000D01*
X114810020Y-85210201D01*
X114590496Y-85285563D01*
X114386373Y-85396029D01*
X114203215Y-85538586D01*
X114046021Y-85709346D01*
X114043641Y-85712989D01*
X113991254Y-85766248D01*
X113922353Y-85795121D01*
X113847647Y-85795121D01*
X113778746Y-85766248D01*
X113726359Y-85712989D01*
X113723978Y-85709346D01*
X113566784Y-85538586D01*
X113383626Y-85396029D01*
X113179503Y-85285563D01*
X112959979Y-85210201D01*
X112731051Y-85172000D01*
X112731049Y-85172000D01*
X112498951Y-85172000D01*
X112498949Y-85172000D01*
X112270020Y-85210201D01*
X112050496Y-85285563D01*
X111846373Y-85396029D01*
X111663215Y-85538586D01*
X111506021Y-85709346D01*
X111503641Y-85712989D01*
X111451254Y-85766248D01*
X111382353Y-85795121D01*
X111307647Y-85795121D01*
X111238746Y-85766248D01*
X111186359Y-85712989D01*
X111183978Y-85709346D01*
X111026784Y-85538586D01*
X110843626Y-85396029D01*
X110639503Y-85285563D01*
X110419979Y-85210201D01*
X110191051Y-85172000D01*
X110191049Y-85172000D01*
X109958951Y-85172000D01*
X109958949Y-85172000D01*
X109730020Y-85210201D01*
X109510496Y-85285563D01*
X109306373Y-85396029D01*
X109123215Y-85538586D01*
X108966021Y-85709346D01*
X108963641Y-85712989D01*
X108911254Y-85766248D01*
X108842353Y-85795121D01*
X108767647Y-85795121D01*
X108698746Y-85766248D01*
X108646359Y-85712989D01*
X108643978Y-85709346D01*
X108486784Y-85538586D01*
X108303626Y-85396029D01*
X108099503Y-85285563D01*
X107879979Y-85210201D01*
X107651051Y-85172000D01*
X107651049Y-85172000D01*
X107418951Y-85172000D01*
X107418949Y-85172000D01*
X107190020Y-85210201D01*
X106970496Y-85285563D01*
X106766373Y-85396029D01*
X106583215Y-85538586D01*
X106426021Y-85709346D01*
X106423641Y-85712989D01*
X106371254Y-85766248D01*
X106302353Y-85795121D01*
X106227647Y-85795121D01*
X106158746Y-85766248D01*
X106106359Y-85712989D01*
X106103978Y-85709346D01*
X105946784Y-85538586D01*
X105763626Y-85396029D01*
X105559503Y-85285563D01*
X105339979Y-85210201D01*
X105111051Y-85172000D01*
X105111049Y-85172000D01*
X104878951Y-85172000D01*
X104878949Y-85172000D01*
X104650020Y-85210201D01*
X104430496Y-85285563D01*
X104226373Y-85396029D01*
X104043215Y-85538586D01*
X103886021Y-85709346D01*
X103883641Y-85712989D01*
X103831254Y-85766248D01*
X103762353Y-85795121D01*
X103687647Y-85795121D01*
X103618746Y-85766248D01*
X103566359Y-85712989D01*
X103563978Y-85709346D01*
X103406784Y-85538586D01*
X103223626Y-85396029D01*
X103019503Y-85285563D01*
X102799979Y-85210201D01*
X102571051Y-85172000D01*
X102571049Y-85172000D01*
X102338951Y-85172000D01*
X102338949Y-85172000D01*
X102110020Y-85210201D01*
X101890496Y-85285563D01*
X101686373Y-85396029D01*
X101503215Y-85538586D01*
X101346020Y-85709346D01*
X101210488Y-85916796D01*
X101209244Y-85915983D01*
X101171833Y-85967114D01*
X101099936Y-86006644D01*
X101018068Y-86012077D01*
X100941578Y-85982395D01*
X100884803Y-85923163D01*
X100858388Y-85845486D01*
X100849586Y-85765482D01*
X100781072Y-85503412D01*
X100675130Y-85254110D01*
X100549220Y-85047799D01*
X134515984Y-85047799D01*
X135475000Y-86006814D01*
X136434015Y-85047797D01*
X136377530Y-85009286D01*
X136134454Y-84892228D01*
X135876658Y-84812707D01*
X135609894Y-84772500D01*
X135340106Y-84772500D01*
X135073341Y-84812707D01*
X134815545Y-84892228D01*
X134572475Y-85009284D01*
X134515984Y-85047799D01*
X100549220Y-85047799D01*
X100534018Y-85022890D01*
X100444743Y-84915615D01*
X100360746Y-84814681D01*
X100299640Y-84759930D01*
X100159002Y-84633918D01*
X99933090Y-84484456D01*
X99687824Y-84369480D01*
X99428431Y-84291440D01*
X99160439Y-84252000D01*
X98957369Y-84252000D01*
X98957363Y-84252000D01*
X98754844Y-84266822D01*
X98490448Y-84325719D01*
X98237441Y-84422486D01*
X98001224Y-84555058D01*
X97786819Y-84720614D01*
X97598816Y-84915615D01*
X97441198Y-85135924D01*
X97317344Y-85376823D01*
X97229882Y-85633192D01*
X97180681Y-85899565D01*
X97170788Y-86170268D01*
X95900500Y-86170268D01*
X95900500Y-64962500D01*
X97025000Y-64962500D01*
X97025000Y-82652500D01*
X103514999Y-82652500D01*
X103515000Y-82652500D01*
X103515000Y-64962500D01*
X97025000Y-64962500D01*
X95900500Y-64962500D01*
X95900500Y-57890000D01*
X95914925Y-57817481D01*
X95956003Y-57756003D01*
X96017481Y-57714925D01*
X96090000Y-57700500D01*
X156910000Y-57700500D01*
X156982519Y-57714925D01*
G37*
%TD.AperFunction*%
%TD*%
M02*
