M48
; DRILL file {KiCad 7.0.1} date Tue Sep 12 17:25:18 2023
; FORMAT={-:-/ absolute / metric / decimal}
; #@! TF.CreationDate,2023-09-12T17:25:18-03:00
; #@! TF.GenerationSoftware,Kicad,Pcbnew,7.0.1
; #@! TF.FileFunction,Plated,1,2,PTH
FMAT,2
METRIC
; #@! TA.AperFunction,Plated,PTH,ComponentDrill
T1C0.800
; #@! TA.AperFunction,Plated,PTH,ComponentDrill
T2C0.990
; #@! TA.AperFunction,Plated,PTH,ComponentDrill
T3C1.000
; #@! TA.AperFunction,Plated,PTH,ComponentDrill
T4C1.020
; #@! TA.AperFunction,Plated,PTH,ComponentDrill
T5C1.100
; #@! TA.AperFunction,Plated,PTH,ComponentDrill
T6C1.300
%
G90
G05
T1
X135.95Y-67.05
X138.45Y-67.05
X148.9Y-94.35
X148.935Y-110.895
X148.935Y-113.395
X151.4Y-94.35
T2
X155.037Y-82.225
X155.037Y-86.725
T3
X102.9Y-91.3
X105.44Y-91.3
X107.98Y-91.3
X110.52Y-91.3
X113.06Y-91.3
X115.6Y-91.3
X118.14Y-91.3
X120.68Y-91.3
X129.84Y-103.2
X132.38Y-103.2
X134.92Y-103.2
X137.46Y-103.2
X140.0Y-103.2
T4
X102.455Y-61.172
X102.455Y-86.572
X104.995Y-61.172
X104.995Y-86.572
X107.535Y-61.172
X107.535Y-86.572
X110.075Y-61.172
X110.075Y-86.572
X112.615Y-61.172
X112.615Y-86.572
X115.155Y-61.172
X115.155Y-86.572
X117.695Y-61.172
X117.695Y-86.572
X120.235Y-61.172
X120.235Y-86.572
X122.775Y-61.172
X122.775Y-86.572
X125.315Y-61.172
X125.315Y-86.572
X127.855Y-61.172
X127.855Y-86.572
X130.395Y-61.172
X130.395Y-86.572
X132.935Y-61.172
X132.935Y-86.572
X135.475Y-61.172
X135.475Y-86.572
X138.015Y-61.172
X138.015Y-86.572
T5
X139.82Y-77.7
X149.98Y-77.7
T6
X152.547Y-80.975
X152.547Y-87.985
T0
M30
